# Blender 3.5.0
# www.blender.org
mtllib SharkBody.mtl
o body_Cube.001
v -0.998078 0.834498 0.644769
v -0.998078 -0.807640 0.744973
v -0.998078 0.834498 -0.644769
v -0.998078 -0.807640 -0.744973
v -0.998078 -0.000000 -0.863805
v -0.998078 0.000000 0.863805
v -0.998078 0.357826 -0.964679
v -0.998078 0.357826 0.964679
v -1.789331 -0.369050 2.036944
v -1.789331 -0.369050 -2.036944
v 0.198697 -0.841878 0.664130
v 0.198697 0.841257 -0.718381
v -0.268551 -0.000000 -0.963322
v 0.198697 -0.841878 -0.664130
v 0.198697 0.841257 0.718381
v -0.268551 0.000000 0.963322
v 0.198697 0.357826 0.964679
v 0.198697 0.357826 -0.964679
v -0.268551 -0.403288 0.967758
v -0.268551 -0.403288 -0.967758
v -0.998078 -0.557640 0.842096
v -0.998078 -0.557640 -0.842096
v -0.268551 -0.591878 -0.842096
v -0.268551 -0.591878 0.842096
v -0.998078 -0.682640 0.744973
v 0.198697 -0.716878 -0.744973
v 0.198697 -0.716878 0.744973
v -0.998078 -0.682640 -0.744973
v -0.998078 0.750000 -0.860762
v -0.998078 0.750000 0.860762
v 0.198697 0.750000 0.858117
v 0.198697 0.750000 -0.858117
v -0.399691 -0.824759 0.664130
v -0.399691 0.837877 -0.781070
v -0.399691 -0.000000 -0.943544
v -0.399691 0.357826 -0.964679
v -0.551668 -0.386169 -1.548238
v -0.399691 -0.824759 -0.664130
v -0.399691 0.837877 0.781070
v -0.399691 0.000000 0.943544
v -0.399691 0.357826 0.964679
v -0.551668 -0.386169 1.548238
v -0.399691 -0.574759 0.842096
v -0.399691 -0.574759 -0.842096
v -0.399691 -0.699759 -0.744973
v -0.399691 -0.699759 0.744973
v -0.399691 0.750000 0.858117
v -0.399691 0.750000 -0.858117
v -1.922456 -0.875860 0.000000
v -1.922456 0.834498 -0.000000
v -3.334453 0.000000 0.000000
v 0.430874 1.215275 -0.000000
v -3.334453 0.500000 -0.000000
v -3.334453 -0.307640 0.000000
v 0.198697 -0.917493 0.000000
v -0.850411 2.174385 -0.000000
v -3.334453 -0.557640 0.000000
v -2.864326 -0.682640 0.000000
v -2.864326 0.750000 -0.000000
v -0.399691 -0.952691 0.000000
v -2.301014 2.388233 -0.000000
v -1.922456 0.834498 0.500000
v -1.922456 0.000000 0.714956
v -1.922456 0.500000 0.500000
v -1.922456 -0.369050 0.625661
v -1.922456 -0.557640 0.500000
v -1.922456 -0.682640 0.500000
v -1.922456 0.750000 0.500000
v -1.922456 -0.807640 0.500000
v 0.198697 -0.841878 0.500000
v 0.198697 0.841257 0.500000
v -0.399691 -0.824759 0.500000
v -0.399691 0.837877 0.500000
v -1.922456 -0.807640 -0.500000
v 0.198697 -0.841878 -0.500000
v 0.198697 0.841257 -0.500000
v -0.399691 -0.824759 -0.500000
v -0.399691 0.837877 -0.500000
v -1.922456 0.834498 -0.500000
v -1.922456 -0.000000 -0.714956
v -1.922456 0.500000 -0.500000
v -1.922456 -0.369050 -0.625661
v -1.922456 -0.557640 -0.500000
v -1.922456 -0.682640 -0.500000
v -1.922456 0.750000 -0.500000
v -1.922456 0.834498 -0.250000
v -3.334453 -0.000000 -0.250000
v -3.334453 0.500000 -0.250000
v -3.334453 -0.307640 -0.250000
v -3.334453 -0.557640 -0.250000
v -2.864326 -0.682640 -0.250000
v -2.864326 0.750000 -0.250000
v -1.922456 -0.807640 -0.250000
v 0.698697 1.058169 -0.250000
v 0.198697 -0.841878 -0.250000
v 0.198697 1.372698 -0.250000
v -0.399691 -0.824759 -0.250000
v -0.399691 1.369319 -0.250000
v -1.922456 -0.807640 0.250000
v 0.698697 1.058169 0.250000
v 0.198697 -0.841878 0.250000
v 0.198697 1.372698 0.250000
v -0.399691 -0.824759 0.250000
v -0.399691 1.369319 0.250000
v -1.922456 0.834498 0.250000
v -3.334453 0.000000 0.250000
v -3.334453 0.500000 0.250000
v -3.334453 -0.307640 0.250000
v -3.334453 -0.557640 0.250000
v -2.864326 -0.682640 0.250000
v -2.864326 0.750000 0.250000
v -0.998078 -0.771147 0.744973
v 0.198697 -0.805385 -0.687732
v 0.198697 -0.805385 0.687732
v -0.998078 -0.771147 -0.744973
v -0.399691 -0.788266 0.687732
v -0.399691 -0.788266 -0.687732
v -2.197433 -0.771147 0.000000
v -1.922456 -0.771147 0.500000
v -1.922456 -0.771147 -0.500000
v -2.197433 -0.771147 -0.250000
v -2.197433 -0.771147 0.250000
vn -0.0056 1.0000 -0.0000
vn 0.0033 0.6592 -0.7519
vn -0.1408 0.9220 0.3607
vn -0.9953 -0.0227 0.0939
vn 0.1696 0.9016 -0.3980
vn -0.1532 -0.2681 0.9511
vn -0.1272 -0.2691 -0.9547
vn -0.0277 -0.9672 -0.2524
vn -0.2943 -0.5299 0.7953
vn -0.0722 -0.5531 0.8300
vn -0.1489 -0.0583 0.9871
vn -0.0286 -0.9996 -0.0000
vn -0.0000 0.6593 0.7519
vn 0.8597 0.3042 0.4103
vn -0.0188 -0.6563 0.7543
vn -0.2562 -0.0000 0.9666
vn -0.0176 -0.6135 -0.7895
vn 0.0647 -0.5419 -0.8379
vn -0.0155 -0.5430 0.8396
vn -0.0000 0.2622 0.9650
vn -0.4077 0.2339 0.8826
vn -0.0000 0.2561 -0.9666
vn -0.0000 0.2622 -0.9650
vn -0.0000 0.2561 0.9666
vn 0.0647 -0.5419 0.8379
vn -0.0155 -0.5430 -0.8396
vn -0.0188 -0.6563 -0.7543
vn -0.0176 -0.6135 0.7895
vn 0.1696 0.9016 0.3980
vn 0.0033 0.6592 0.7519
vn -0.0112 -0.9990 -0.0424
vn -0.1272 -0.2691 0.9547
vn -0.0277 -0.9672 0.2524
vn -0.0722 -0.5531 -0.8300
vn -0.1489 -0.0583 -0.9871
vn 0.8597 0.3042 -0.4103
vn -0.0000 0.6593 -0.7519
vn -0.0017 0.2957 0.9553
vn -0.0108 -0.9647 0.2632
vn -0.4695 0.8829 -0.0000
vn -0.1316 -0.9913 -0.0000
vn -0.2570 -0.9664 -0.0000
vn 0.5321 0.8458 -0.0385
vn 0.0523 -0.8890 0.4549
vn -1.0000 -0.0000 -0.0000
vn -0.0894 0.9960 -0.0000
vn -0.0514 0.1464 0.9879
vn -0.0112 -0.9990 0.0424
vn -0.1657 0.3115 0.9357
vn -0.6727 -0.0000 0.7399
vn -0.2565 -0.0000 0.9665
vn -0.1743 -0.0000 0.9847
vn -0.2896 0.3780 0.8793
vn -0.2571 -0.0000 0.9664
vn -0.0847 0.9439 0.3190
vn -0.1408 0.9220 -0.3607
vn -0.9953 -0.0227 -0.0939
vn -0.1532 -0.2681 -0.9511
vn -0.2943 -0.5299 -0.7953
vn -0.2562 -0.0000 -0.9666
vn -0.4077 0.2339 -0.8826
vn -0.0024 0.4257 -0.9049
vn -0.0112 -0.9999 -0.0000
vn -0.1479 0.4210 -0.8949
vn -0.0514 0.1464 -0.9879
vn 0.0523 -0.8890 -0.4549
vn 0.5321 0.8458 0.0385
vn -0.0108 -0.9647 -0.2632
vn -0.0017 0.2957 -0.9553
vn -0.0847 0.9439 -0.3190
vn -0.2571 -0.0000 -0.9664
vn -0.2896 0.3780 -0.8793
vn -0.1743 -0.0000 -0.9847
vn -0.2565 -0.0000 -0.9665
vn -0.6727 -0.0000 -0.7399
vn -0.1657 0.3115 -0.9357
vn -0.1479 0.4210 0.8949
vn -0.0024 0.4257 0.9049
vn -0.3448 -0.9056 0.2471
vn -0.3448 -0.9056 -0.2471
vn 0.0974 -0.5405 0.8357
vn 0.0974 -0.5405 -0.8357
vn 1.0000 -0.0000 -0.0000
vn -0.0022 0.9999 -0.0142
vn -0.0879 0.9277 -0.3629
vn -0.1547 -0.0000 0.9880
vn -0.0439 0.9611 0.2727
vn -0.0699 0.8486 -0.5244
vn -0.3723 0.3666 0.8527
vn -0.0000 -0.0590 -0.9983
vn 0.0642 -0.9783 -0.1970
vn -0.2042 -0.9787 0.0193
vn 0.6217 -0.7130 0.3242
vn -0.0000 -0.0038 1.0000
vn 0.0525 0.8361 0.5460
vn -0.1491 0.0109 0.9888
vn -0.0798 -0.6116 0.7871
vn -0.2805 -0.5889 0.7580
vn -0.0000 -0.0000 -1.0000
vn -0.3636 -0.0000 0.9316
vn 0.0043 0.2622 -0.9650
vn 0.0043 0.2622 0.9650
vn -0.0000 -0.0000 1.0000
vn -0.0798 -0.6116 -0.7871
vn -0.0699 0.8486 0.5244
vn -0.0879 0.9277 0.3629
vn -0.0000 -0.0590 0.9983
vn 0.0642 -0.9783 0.1970
vn 0.6217 -0.7130 -0.3242
vn -0.0000 -0.0038 -1.0000
vn -0.1491 0.0109 -0.9888
vn 0.0525 0.8361 -0.5460
vn 0.0472 0.3202 0.9462
vn -0.0449 -0.8893 0.4551
vn 0.5984 0.7995 0.0524
vn -0.0274 -0.9568 0.2894
vn -0.9716 -0.2367 -0.0000
vn -0.0022 0.9999 0.0142
vn -0.1179 -0.8882 0.4441
vn -0.1458 -0.5483 0.8234
vn -0.2384 -0.5385 0.8082
vn -0.3048 -0.2240 0.9257
vn -0.1547 -0.0000 -0.9880
vn -0.0439 0.9611 -0.2727
vn -0.3723 0.3666 -0.8527
vn -0.2042 -0.9787 -0.0193
vn -0.2805 -0.5889 -0.7580
vn -0.3636 -0.0000 -0.9316
vn -0.0022 1.0000 -0.0000
vn -0.0274 -0.9568 -0.2894
vn 0.5984 0.7995 -0.0524
vn -0.0449 -0.8893 -0.4551
vn 0.0472 0.3202 -0.9462
vn -0.3048 -0.2240 -0.9257
vn -0.2384 -0.5385 -0.8082
vn -0.1458 -0.5483 -0.8234
vn -0.1179 -0.8882 -0.4441
vn -0.1302 -0.9811 -0.1432
vn -0.1302 -0.9811 0.1432
vn 0.0952 -0.0000 0.9955
vn 0.0952 -0.0000 -0.9955
vn 0.1483 -0.1984 -0.9688
vn 0.8084 0.5708 0.1441
vn 0.7797 -0.0920 -0.6193
vn 0.4702 -0.6116 0.6363
vn 0.2587 0.4112 -0.8741
vn 0.5060 0.8625 -0.0000
vn 0.2587 0.4112 0.8741
vn 0.4702 -0.6116 -0.6363
vn 0.1483 -0.1984 0.9688
vn 0.3980 -0.9174 -0.0000
vn 0.8084 0.5708 -0.1441
vn 0.7797 -0.0920 0.6193
vt 0.155170 0.058148
vt 0.923272 0.963272
vt 0.785003 0.978128
vt 0.524160 0.341554
vt 0.151980 0.189240
vt 0.923272 0.985410
vt 0.834304 0.957989
vt 0.139136 0.188784
vt 0.322117 0.540093
vt 0.163100 0.050701
vt 0.144226 0.188539
vt 0.161171 0.052324
vt 0.327410 0.540093
vt 0.183072 0.047153
vt 0.882489 0.952494
vt 0.130928 0.197869
vt 0.916791 0.979942
vt 0.767302 0.975758
vt 0.941147 0.964675
vt 0.847104 0.980098
vt 0.152257 0.171344
vt 0.506267 0.342408
vt 0.844311 0.947679
vt 0.139127 0.177752
vt 0.806609 0.751490
vt 0.856216 0.954566
vt 0.834304 0.940444
vt 0.941147 0.984411
vt 0.861308 0.966154
vt 0.143069 0.044864
vt 0.828946 0.962762
vt 0.322669 0.551106
vt 0.857315 0.815122
vt 0.835612 0.974792
vt 0.326953 0.557968
vt 0.148565 0.039588
vt 0.831361 0.970491
vt 0.144561 0.170810
vt 0.851993 0.950236
vt 0.773687 0.984228
vt 0.861479 0.819459
vt 0.839776 0.979129
vt 0.937476 0.961746
vt 0.810868 0.755734
vt 0.860475 0.958810
vt 0.784792 0.982043
vt 0.862808 0.960723
vt 0.926680 0.960691
vt 0.837803 0.957757
vt 0.937534 0.959491
vt 0.861100 0.962135
vt 0.773928 0.980841
vt 0.843090 0.979816
vt 0.784973 0.979684
vt 0.944466 0.957071
vt 0.835984 0.940255
vt 0.860868 0.963976
vt 0.767146 0.977983
vt 0.844934 0.979617
vt 0.926694 0.958992
vt 0.836157 0.957983
vt 0.150264 0.188755
vt 0.157437 0.055831
vt 0.144811 0.043117
vt 0.828405 0.965200
vt 0.150605 0.171032
vt 0.846758 0.947183
vt 0.932209 0.964574
vt 0.776215 0.976608
vt 0.151906 0.180067
vt 0.515253 0.343080
vt 0.139132 0.179739
vt 0.806538 0.751841
vt 0.144393 0.179674
vt 0.817200 0.749766
vt 0.132067 0.180641
vt 0.934282 0.970784
vt 0.932209 0.984310
vt 0.834390 0.949308
vt 0.149871 0.050704
vt 0.857666 0.815057
vt 0.157400 0.043691
vt 0.322554 0.549124
vt 0.154868 0.045956
vt 0.327182 0.549030
vt 0.855395 0.825679
vt 0.776998 0.989552
vt 0.166473 0.037805
vt 0.871346 0.969008
vt 0.860870 0.969448
vt 0.775878 0.981193
vt 0.935567 0.959730
vt 0.836071 0.949119
vt 0.935580 0.958031
vt 0.776059 0.978833
vt 0.151114 0.049485
vt 0.150437 0.179896
vt 0.909629 0.974002
vt 0.058218 0.564366
vt 0.152911 0.458615
vt 0.160035 0.073183
vt 0.406766 0.547586
vt 0.132384 0.050731
vt 0.832474 0.950989
vt 0.177423 0.085932
vt 0.406766 0.540093
vt 0.406766 0.552196
vt 0.941277 0.974396
vt 0.854996 0.973931
vt 0.138667 0.070895
vt 0.172739 0.442248
vt 0.406766 0.555942
vt 0.888061 0.974301
vt 0.895275 0.974165
vt 0.170591 0.082631
vt 0.932430 0.974194
vt 0.152338 0.087788
vt 0.037805 0.563631
vt 0.175957 0.463664
vt 0.163812 0.069152
vt 0.171712 0.061738
vt 0.290169 0.148706
vt 0.166328 0.066875
vt 0.173813 0.059946
vt 0.862406 0.946244
vt 0.798860 0.983581
vt 0.290396 0.143375
vt 0.860870 0.946253
vt 0.799101 0.980193
vt 0.799130 0.978638
vt 0.164448 0.068577
vt 0.909511 0.966704
vt 0.799160 0.977083
vt 0.941147 0.967114
vt 0.848859 0.978375
vt 0.141419 0.046625
vt 0.831281 0.960470
vt 0.932209 0.967013
vt 0.147748 0.052970
vt 0.909511 0.981563
vt 0.834570 0.972237
vt 0.941147 0.981972
vt 0.859553 0.967877
vt 0.506180 0.339997
vt 0.151846 0.426076
vt 0.841975 0.949971
vt 0.932209 0.981871
vt 0.515141 0.339977
vt 0.151816 0.434944
vt 0.537944 0.339977
vt 0.152032 0.203261
vt 0.151816 0.457507
vt 0.156258 0.077213
vt 0.139197 0.202814
vt 0.147072 0.203277
vt 0.912331 0.959326
vt 0.133916 0.203034
vt 0.840805 0.971931
vt 0.912389 0.957071
vt 0.838278 0.972225
vt 0.836424 0.972231
vt 0.909296 0.981805
vt 0.156893 0.076638
vt 0.150779 0.203265
vt 0.152363 0.458061
vt 0.158147 0.075198
vt 0.403019 0.547586
vt 0.139799 0.224784
vt 0.175535 0.087947
vt 0.403019 0.540093
vt 0.147213 0.224760
vt 0.135237 0.224798
vt 0.403019 0.552196
vt 0.842126 0.993696
vt 0.403019 0.555942
vt 0.888061 0.978016
vt 0.838419 0.993708
vt 0.836697 0.986749
vt 0.895275 0.977879
vt 0.168703 0.084646
vt 0.151052 0.217783
vt 0.909511 0.977848
vt 0.128856 0.048826
vt 0.836502 0.949744
vt 0.941147 0.978257
vt 0.856880 0.970502
vt 0.160272 0.426439
vt 0.131757 0.056288
vt 0.833752 0.946942
vt 0.932209 0.978156
vt 0.160242 0.435306
vt 0.909511 0.970419
vt 0.132633 0.044796
vt 0.831155 0.954993
vt 0.941147 0.970828
vt 0.851533 0.975751
vt 0.135534 0.052258
vt 0.828405 0.952191
vt 0.932209 0.970727
vt 0.058218 0.540093
vt 0.141862 0.058603
vt 0.056352 0.563387
vt 0.161924 0.071167
vt 0.183072 0.080513
vt 0.311936 0.146357
vt 0.410512 0.547586
vt 0.410512 0.540093
vt 0.179312 0.083917
vt 0.312009 0.142530
vt 0.820473 0.982736
vt 0.410512 0.552196
vt 0.820533 0.979625
vt 0.410512 0.555942
vt 0.888061 0.970587
vt 0.813556 0.977570
vt 0.895275 0.970450
vt 0.172480 0.080615
vt 0.784994 0.978582
vt 0.834794 0.940389
vt 0.861180 0.965518
vt 0.767256 0.976408
vt 0.846471 0.979958
vt 0.834845 0.957987
vt 0.776170 0.977258
vt 0.834881 0.949253
vt 0.905355 0.974143
vt 0.909449 0.966775
vt 0.799151 0.977537
vt 0.909449 0.981634
vt 0.835112 0.972235
vt 0.905355 0.977857
vt 0.803639 0.975758
vt 0.905355 0.970428
s 0
usemtl Material.004
f 78/148/1 34/71/1 3/4/1
f 34/70/2 48/97/2 29/62/2
f 68/131/3 30/63/3 1/1/3
f 63/121/4 65/124/4 9/14/4
f 37/76/5 10/16/5 5/8/5
f 63/121/6 6/10/6 8/12/6
f 35/72/7 5/8/7 7/11/7
f 37/77/8 44/92/8 22/48/8
f 65/125/9 66/128/9 21/47/9
f 43/91/10 24/52/10 19/40/10
f 41/85/11 40/83/11 16/32/11
f 75/142/12 77/147/12 38/78/12
f 39/80/13 47/96/13 31/64/13
f 40/81/14 42/86/14 19/41/14
f 46/95/15 27/58/15 24/52/15
f 66/129/16 67/130/16 25/54/16
f 44/92/17 45/94/17 28/60/17
f 45/93/18 117/225/18 115/223/18
f 67/130/16 119/228/16 112/218/16
f 116/224/19 114/221/19 27/58/19
f 47/96/20 41/84/20 17/36/20
f 64/123/21 8/12/21 30/63/21
f 36/74/22 7/11/22 29/62/22
f 32/66/23 18/38/23 36/74/23
f 30/63/24 8/12/24 41/84/24
f 112/218/25 116/224/25 46/95/25
f 26/56/26 113/219/26 117/225/26
f 23/50/27 26/55/27 45/94/27
f 25/54/28 46/95/28 43/91/28
f 6/10/29 9/14/29 42/88/29
f 30/63/30 47/96/30 39/80/30
f 77/147/31 74/140/31 4/6/31
f 8/13/32 6/9/32 40/83/32
f 21/47/33 43/90/33 42/89/33
f 20/43/34 23/50/34 44/92/34
f 13/24/35 35/72/35 36/74/35
f 20/44/36 37/75/36 35/73/36
f 32/66/37 48/97/37 34/70/37
f 78/148/1 76/144/1 12/22/1
f 104/201/38 102/197/38 56/110/38
f 103/199/39 99/192/39 49/98/39
f 92/180/40 88/169/40 53/105/40
f 91/179/41 121/231/41 118/226/41
f 90/176/42 91/179/42 58/114/42
f 102/197/43 100/193/43 52/103/43
f 103/199/44 60/116/44 55/108/44
f 89/173/45 90/175/45 57/112/45
f 88/170/45 87/167/45 51/102/45
f 87/167/45 89/173/45 54/107/45
f 86/166/46 92/180/46 59/115/46
f 105/202/47 104/200/47 61/118/47
f 1/1/1 39/80/1 73/139/1
f 11/19/12 33/68/12 72/138/12
f 2/2/48 69/132/48 72/138/48
f 15/30/1 71/136/1 73/139/1
f 111/217/49 107/208/49 64/123/49
f 122/232/50 119/228/50 67/130/50
f 110/215/51 67/130/51 66/129/51
f 108/210/52 109/212/52 66/129/52
f 106/204/53 63/121/53 64/123/53
f 106/205/54 108/209/54 65/127/54
f 105/203/55 111/217/55 68/131/55
f 3/5/56 29/62/56 85/164/56
f 10/16/57 82/157/57 80/154/57
f 7/11/58 5/8/58 80/154/58
f 22/48/59 83/159/59 82/156/59
f 28/61/60 84/161/60 83/160/60
f 28/61/60 115/223/60 120/230/60
f 29/62/61 7/11/61 81/155/61
f 98/191/62 96/187/62 76/145/62
f 97/190/63 93/182/63 74/140/63
f 95/185/12 97/190/12 77/147/12
f 86/165/64 98/191/64 78/149/64
f 61/119/65 98/191/65 86/165/65
f 55/108/66 60/116/66 97/190/66
f 52/103/67 94/183/67 96/188/67
f 49/98/68 93/182/68 97/190/68
f 56/111/69 96/187/69 98/191/69
f 85/163/70 92/180/70 86/166/70
f 82/157/71 89/172/71 87/168/71
f 81/155/72 80/154/72 87/168/72
f 83/160/73 90/177/73 89/174/73
f 83/160/74 84/161/74 91/178/74
f 84/162/75 120/229/75 121/231/75
f 81/155/76 88/171/76 92/181/76
f 50/101/46 59/115/46 111/217/46
f 51/102/45 54/107/45 108/211/45
f 53/106/45 51/102/45 106/206/45
f 54/107/45 57/112/45 109/213/45
f 57/113/42 58/114/42 110/216/42
f 58/114/41 118/226/41 122/233/41
f 59/115/40 53/105/40 107/208/40
f 73/139/77 104/201/77 105/203/77
f 70/134/12 72/138/12 103/199/12
f 72/138/63 69/132/63 99/192/63
f 71/136/78 102/197/78 104/201/78
f 118/226/79 49/98/79 99/192/79
f 120/229/45 74/140/45 93/182/45
f 115/223/60 4/7/60 74/141/60
f 99/192/45 69/132/45 119/227/45
f 93/182/80 49/98/80 118/226/80
f 113/219/26 14/27/26 38/79/26
f 2/3/81 33/69/81 116/224/81
f 33/69/19 11/18/19 114/221/19
f 119/228/16 69/133/16 2/3/16
f 117/225/82 38/79/82 4/7/82
f 101/196/83 27/59/83 70/135/83
f 78/148/84 3/4/84 79/150/84
f 34/70/85 29/62/85 3/5/85
f 68/131/86 1/1/86 62/120/86
f 63/121/87 9/14/87 6/10/87
f 37/76/88 5/8/88 35/72/88
f 63/121/89 8/12/89 64/123/89
f 35/72/90 7/11/90 36/74/90
f 37/77/91 22/48/91 10/17/91
f 65/125/92 21/47/92 9/15/92
f 43/91/93 19/40/93 42/87/93
f 41/85/94 16/32/94 17/35/94
f 75/142/12 38/78/12 14/28/12
f 39/80/95 31/64/95 15/30/95
f 40/81/96 19/41/96 16/33/96
f 46/95/97 24/52/97 43/91/97
f 66/129/98 25/54/98 21/46/98
f 44/92/17 28/60/17 22/48/17
f 45/93/99 115/223/99 28/61/99
f 67/130/16 112/218/16 25/54/16
f 116/224/19 27/58/19 46/95/19
f 47/96/20 17/36/20 31/64/20
f 64/123/100 30/63/100 68/131/100
f 36/74/101 29/62/101 48/97/101
f 32/66/23 36/74/23 48/97/23
f 30/63/102 41/84/102 47/96/102
f 112/218/103 46/95/103 25/54/103
f 26/56/26 117/225/26 45/93/26
f 23/50/104 45/94/104 44/92/104
f 25/54/28 43/91/28 21/46/28
f 6/10/105 42/88/105 40/82/105
f 30/63/106 39/80/106 1/1/106
f 77/147/12 4/6/12 38/78/12
f 8/13/107 40/83/107 41/85/107
f 21/47/108 42/89/108 9/15/108
f 20/43/109 44/92/109 37/77/109
f 13/24/110 36/74/110 18/38/110
f 20/44/111 35/73/111 13/25/111
f 32/66/112 34/70/112 12/21/112
f 78/148/1 12/22/1 34/71/1
f 104/201/113 56/110/113 61/117/113
f 103/199/114 49/98/114 60/116/114
f 92/180/40 53/105/40 59/115/40
f 91/179/41 118/226/41 58/114/41
f 90/176/42 58/114/42 57/113/42
f 102/197/115 52/103/115 56/110/115
f 103/199/116 55/108/116 101/195/116
f 89/173/45 57/112/45 54/107/45
f 88/170/45 51/102/45 53/106/45
f 87/167/45 54/107/45 51/102/45
f 86/166/46 59/115/46 50/101/46
f 105/202/117 61/118/117 50/99/117
f 1/1/118 73/139/118 62/120/118
f 11/19/12 72/138/12 70/134/12
f 2/2/12 72/138/12 33/68/12
f 15/30/1 73/139/1 39/80/1
f 111/217/51 64/123/51 68/131/51
f 122/232/119 67/130/119 110/215/119
f 110/215/120 66/129/120 109/212/120
f 108/210/121 66/129/121 65/126/121
f 106/204/52 64/123/52 107/208/52
f 106/205/122 65/127/122 63/122/122
f 105/203/45 68/131/45 62/120/45
f 3/5/123 85/164/123 79/151/123
f 10/16/124 80/154/124 5/8/124
f 7/11/125 80/154/125 81/155/125
f 22/48/126 82/156/126 10/17/126
f 28/61/127 83/160/127 22/49/127
f 28/61/60 120/230/60 84/161/60
f 29/62/128 81/155/128 85/164/128
f 98/191/62 76/145/62 78/149/62
f 97/190/63 74/140/63 77/147/63
f 95/185/12 77/147/12 75/142/12
f 86/165/129 78/149/129 79/152/129
f 61/119/117 86/165/117 50/100/117
f 55/108/130 97/190/130 95/185/130
f 52/103/131 96/188/131 56/110/131
f 49/98/132 97/190/132 60/116/132
f 56/111/133 98/191/133 61/119/133
f 85/163/45 86/166/45 79/153/45
f 82/157/134 87/168/134 80/154/134
f 81/155/73 87/168/73 88/171/73
f 83/160/135 89/174/135 82/158/135
f 83/160/136 91/178/136 90/177/136
f 84/162/137 121/231/137 91/179/137
f 81/155/74 92/181/74 85/164/74
f 50/101/46 111/217/46 105/203/46
f 51/102/45 108/211/45 106/206/45
f 53/106/45 106/206/45 107/207/45
f 54/107/45 109/213/45 108/211/45
f 57/113/42 110/216/42 109/214/42
f 58/114/41 122/233/41 110/216/41
f 59/115/40 107/208/40 111/217/40
f 73/139/129 105/203/129 62/120/129
f 70/134/12 103/199/12 101/195/12
f 72/138/63 99/192/63 103/199/63
f 71/136/78 104/201/78 73/139/78
f 118/226/41 99/192/41 122/233/41
f 120/229/138 93/182/138 121/231/138
f 115/223/60 74/141/60 120/230/60
f 99/192/139 119/227/139 122/233/139
f 93/182/41 118/226/41 121/231/41
f 113/219/26 38/79/26 117/225/26
f 2/3/140 116/224/140 112/218/140
f 33/69/19 114/221/19 116/224/19
f 119/228/16 2/3/16 112/218/16
f 117/225/141 4/7/141 115/223/141
f 113/220/83 75/143/83 14/29/83
f 95/186/83 101/196/83 55/109/83
f 113/220/83 26/57/83 75/143/83
f 75/143/83 26/57/83 95/186/83
f 20/45/83 13/26/83 23/51/83
f 23/51/142 13/26/142 26/57/142
f 26/57/143 13/26/143 95/186/143
f 95/186/83 76/146/83 101/196/83
f 13/26/144 76/146/144 95/186/144
f 32/67/83 76/146/83 18/39/83
f 18/39/145 76/146/145 13/26/145
f 76/146/83 32/67/83 12/23/83
f 94/184/146 76/146/146 96/189/146
f 100/194/147 94/184/147 52/104/147
f 71/137/148 100/194/148 102/198/148
f 31/65/83 71/137/83 15/31/83
f 16/34/149 71/137/149 17/37/149
f 17/37/83 71/137/83 31/65/83
f 24/53/83 16/34/83 19/42/83
f 27/59/150 16/34/150 24/53/150
f 71/137/151 94/184/151 100/194/151
f 71/137/151 76/146/151 94/184/151
f 27/59/152 101/196/152 16/34/152
f 16/34/153 101/196/153 71/137/153
f 70/135/83 114/222/83 11/20/83
f 114/222/83 70/135/83 27/59/83
f 71/137/83 101/196/83 76/146/83
