# Blender 3.5.0
# www.blender.org
mtllib bossNeck.mtl
o kubi_立方体.003
v -2.371145 -1.000000 -1.000000
v -2.371145 -1.000000 1.000000
v -2.371145 -0.221268 1.563595
v -2.371145 -0.221268 -1.563595
v -2.371145 -1.000000 -0.000000
v -2.371145 -0.221268 -0.000000
v -2.371145 -1.000000 0.500000
v -2.371145 -0.221268 0.500000
v -2.371145 -0.221268 -0.500000
v -2.371145 -1.000000 -0.500000
v -2.371145 -0.061966 -1.000000
v -2.371145 -0.061966 -0.000000
v -2.371145 -0.061966 -0.500000
v -2.371145 -0.500000 -1.000000
v -2.371145 -0.500000 1.000000
v -2.371145 -0.500000 -0.000000
v -2.371145 -0.500000 0.500000
v -2.371145 -0.500000 -0.500000
v -0.050000 -1.000000 -1.000000
v -0.050000 -0.000000 1.563595
v -0.050000 -1.000000 -0.000000
v -0.050000 -1.000000 0.500000
v -0.050000 -1.000000 -0.500000
v -0.050000 -0.500000 1.449086
v -0.050000 -1.000000 1.000000
v -0.050000 0.000000 -1.563595
v -0.050000 -0.500000 -1.449086
v -2.371145 -0.750000 -1.000000
v -2.371145 -0.750000 -0.000000
v -2.371145 -0.750000 0.500000
v -2.371145 -0.750000 -0.500000
v -2.371145 -0.750000 1.000000
v 0.047507 -0.816663 -1.241225
v 0.047507 -0.816663 1.241225
v -2.371145 -0.625000 1.000000
v -2.371145 -0.625000 -1.000000
v -2.371145 -0.625000 -0.000000
v -2.371145 -0.625000 0.500000
v -2.371145 -0.625000 -0.500000
v 0.047507 -0.691663 -1.241225
v 0.047507 -0.691663 1.241225
v -2.371145 -1.000000 0.750000
v -2.371145 -0.221268 1.031797
v -2.371145 -0.500000 0.750000
v -0.050000 -1.000000 0.750000
v -2.371145 -0.750000 0.750000
v -2.371145 -0.625000 0.750000
v -2.371145 -0.221268 -1.031797
v -2.371145 -1.000000 -0.750000
v -2.371145 -0.061966 -0.750000
v -2.371145 -0.500000 -0.750000
v -0.050000 -1.000000 -0.750000
v -2.371145 -0.750000 -0.750000
v -2.371145 -0.625000 -0.750000
v -0.331163 0.473215 -0.994119
v -0.331163 0.473215 0.994119
v -2.371146 -0.221267 1.563595
v -2.371146 -0.221267 -1.563595
v -0.831898 1.264820 0.000000
v -2.371145 -0.221267 -0.000000
v -0.331162 0.473215 0.494119
v -2.371145 -0.221267 0.500000
v -0.331163 0.473215 -0.494119
v -2.371145 -0.061966 1.000000
v -2.371146 -0.061966 -1.000000
v -2.371145 -0.061966 -0.000000
v -2.371145 -0.061966 0.500000
v -2.371146 -0.061967 -0.500000
v -0.050000 0.637881 1.000000
v -0.050000 -0.000000 1.563595
v -0.050000 0.049170 1.426081
v -0.050000 0.637881 -1.000000
v -0.050000 0.000000 -1.563595
v -0.218727 0.827237 0.000000
v -0.050000 0.637881 0.500000
v -0.050000 0.637881 -0.500000
v -0.050000 0.049170 -1.426081
v -2.371146 0.145806 1.000000
v -2.371145 0.145805 -1.000000
v -2.371145 0.145806 0.000000
v -2.371145 0.145806 0.500000
v -2.371145 0.145806 -0.500000
v -0.050000 0.367073 -1.350527
v -0.050000 0.367073 1.350527
v -2.371145 0.041920 -1.000000
v -2.371145 0.041919 0.000000
v -2.371145 0.041920 0.500000
v -2.371145 0.041920 -0.500000
v -0.050000 0.153056 -1.426081
v -0.050000 0.153056 1.426081
v -2.371145 0.041920 1.000000
v -0.331163 0.473215 0.744119
v -2.371145 -0.221267 1.031797
v -2.371145 -0.061966 0.750000
v -0.050000 0.637881 0.750000
v -2.371146 0.145806 0.750000
v -2.371145 0.041920 0.750000
v -0.331163 0.473215 -0.744119
v -2.371146 -0.061966 -0.750000
v -0.050000 0.637881 -0.750000
v -2.371146 0.145806 -0.750000
v -2.371145 0.041920 -0.750000
v -1.351154 0.309510 0.997059
v -1.351154 0.309510 -0.997060
v -1.233374 0.536061 0.000000
v -1.351154 0.309510 0.497060
v -1.351154 0.309510 -0.497060
v -0.050000 0.502477 -1.175264
v -0.050000 0.502477 1.175263
v -1.351154 0.309510 0.747060
v -1.351154 0.309510 -0.747060
vn -1.0000 -0.0000 -0.0000
vn -0.0855 -0.8931 0.4417
vn -0.0859 -0.7522 0.6533
vn -0.0000 -1.0000 -0.0000
vn -0.0855 -0.8931 -0.4417
vn -0.0859 -0.7522 -0.6533
vn -0.0000 -0.0000 -1.0000
vn -0.0000 -0.0000 1.0000
vn -0.0992 -0.0000 -0.9951
vn -0.0992 -0.0000 0.9951
vn -0.5054 0.8629 -0.0000
vn -0.1576 0.9838 0.0858
vn -0.1585 0.9874 -0.0000
vn -0.1454 0.9128 0.3816
vn -0.4593 0.7683 -0.4459
vn -0.4593 0.7683 0.4459
vn -0.1454 0.9128 -0.3816
vn -0.0894 0.9378 0.3353
vn -0.1576 0.9838 -0.0858
vn -0.0894 0.9378 -0.3353
vn -0.1805 -0.0000 -0.9836
vn -0.1805 -0.0000 0.9836
vn -0.1451 0.9111 -0.3858
vn -0.1451 0.9111 0.3858
vn 0.0213 -0.2232 0.9745
vn -0.1900 -0.0000 0.9818
vn 0.0213 -0.2232 -0.9745
vn -0.1900 -0.0000 -0.9818
vn -0.0837 -0.7768 -0.6242
vn -0.0837 -0.7768 0.6242
vn -0.4300 0.7145 0.5520
vn -0.4518 0.2489 0.8567
vn 0.4724 0.6620 -0.5818
vn 0.4724 0.6620 0.5818
vn -0.4518 0.2489 -0.8567
vn -0.0956 0.9579 0.2708
vn -0.4300 0.7145 -0.5520
vn -0.0956 0.9579 -0.2708
vn -0.1716 0.3280 -0.9290
vn -0.1716 0.3280 0.9290
vn -0.1971 0.7758 -0.5994
vn -0.3058 0.8916 -0.3339
vn -0.3058 0.8916 0.3339
vn -0.1971 0.7758 0.5994
vt 0.436007 0.555456
vt 0.047082 0.242114
vt 0.188260 0.636913
vt 0.315171 0.207648
vt 0.188260 0.573390
vt 0.110610 0.242114
vt 0.312414 0.185622
vt 0.212633 0.555420
vt 0.212633 0.654743
vt 0.697300 0.207955
vt 0.078846 0.242114
vt 0.188260 0.605152
vt 0.212633 0.605081
vt 0.094728 0.242114
vt 0.188260 0.589271
vt 0.212633 0.589201
vt 0.212633 0.620962
vt 0.062964 0.242114
vt 0.188260 0.621032
vt 0.217619 0.636828
vt 0.217619 0.605067
vt 0.217619 0.620948
vt 0.697412 0.189969
vt 0.203909 0.636868
vt 0.451673 0.555420
vt 0.313623 0.191978
vt 0.203909 0.573345
vt 0.203909 0.605107
vt 0.203909 0.589226
vt 0.203909 0.620987
vt 0.436007 0.629181
vt 0.047090 0.168386
vt 0.238362 0.185622
vt 0.078854 0.168386
vt 0.094736 0.168386
vt 0.062972 0.168386
vt 0.239980 0.200809
vt 0.110618 0.168386
vt 0.241804 0.214583
vt 0.623494 0.207955
vt 0.623673 0.204166
vt 0.449327 0.628950
vt 0.443840 0.555438
vt 0.196084 0.636890
vt 0.196084 0.605129
vt 0.196084 0.589248
vt 0.196084 0.621010
vt 0.314397 0.199813
vt 0.196084 0.573368
vt 0.440491 0.632160
vt 0.238006 0.210147
vt 0.314011 0.195895
vt 0.199997 0.573357
vt 0.447757 0.555429
vt 0.199997 0.636879
vt 0.199997 0.605118
vt 0.199997 0.589237
vt 0.199997 0.620998
vt 0.444407 0.632151
vt 0.237619 0.206230
vt 0.188260 0.581331
vt 0.102669 0.242114
vt 0.212633 0.572310
vt 0.203909 0.581286
vt 0.102677 0.168386
vt 0.196084 0.581308
vt 0.199997 0.581297
vt 0.212633 0.637852
vt 0.188260 0.628972
vt 0.055023 0.242114
vt 0.217619 0.628888
vt 0.203909 0.628927
vt 0.055031 0.168386
vt 0.196084 0.628950
vt 0.199997 0.628939
vt 0.109821 0.429826
vt 0.046667 0.430096
vt 0.028762 0.497896
vt 0.700560 0.028762
vt 0.915536 0.935416
vt 0.917718 0.877892
vt 0.866135 0.899148
vt 0.078427 0.497683
vt 0.902543 0.851806
vt 0.062549 0.430028
vt 0.062545 0.497751
vt 0.882376 0.935416
vt 0.893892 0.888025
vt 0.093939 0.429894
vt 0.233605 0.489608
vt 0.046605 0.495508
vt 0.302809 0.489594
vt 0.701473 0.046837
vt 0.110132 0.495236
vt 0.078369 0.495372
vt 0.062487 0.495440
vt 0.094250 0.495304
vt 0.046430 0.419763
vt 0.028762 0.429094
vt 0.033112 0.428362
vt 0.202034 0.423317
vt 0.109957 0.419491
vt 0.632800 0.040691
vt 0.896988 0.948355
vt 0.914947 0.854124
vt 0.911411 0.846507
vt 0.062312 0.419695
vt 0.883601 0.939229
vt 0.094075 0.419559
vt 0.632876 0.045131
vt 0.334172 0.423361
vt 0.239445 0.486549
vt 0.046529 0.492494
vt 0.296968 0.486529
vt 0.110056 0.492222
vt 0.078293 0.492358
vt 0.834788 0.884557
vt 0.818907 0.884626
vt 0.062411 0.492426
vt 0.850670 0.884490
vt 0.094174 0.492290
vt 0.325205 0.418561
vt 0.121190 0.423372
vt 0.211044 0.418531
vt 0.035395 0.423739
vt 0.110094 0.493729
vt 0.299889 0.488061
vt 0.078331 0.493865
vt 0.062449 0.493933
vt 0.094212 0.493797
vt 0.331252 0.421828
vt 0.204954 0.421788
vt 0.236525 0.488079
vt 0.046567 0.494001
vt 0.054608 0.430062
vt 0.045654 0.497824
vt 0.054546 0.495474
vt 0.054371 0.419729
vt 0.054470 0.492460
vt 0.054508 0.493967
vt 0.101880 0.429860
vt 0.102191 0.495270
vt 0.102016 0.419525
vt 0.102115 0.492256
vt 0.102153 0.493763
vt 0.046598 0.461295
vt 0.109938 0.461024
vt 0.891327 0.877892
vt 0.886963 0.915375
vt 0.834685 0.846744
vt 0.882376 0.877676
vt 0.062480 0.461227
vt 0.818976 0.853427
vt 0.893892 0.920818
vt 0.094057 0.461092
vt 0.850552 0.853291
vt 0.115574 0.421431
vt 0.040913 0.421751
vt 0.054539 0.461261
vt 0.101998 0.461058
s 0
usemtl Material.002
f 48/68/1 14/24/1 51/72/1
f 24/37/2 3/7/2 15/26/2
f 8/16/1 16/28/1 17/29/1
f 44/64/1 8/16/1 17/29/1
f 6/13/1 18/30/1 16/28/1
f 12/21/1 9/17/1 6/13/1
f 48/68/1 11/20/1 4/9/1
f 16/28/1 39/58/1 37/56/1
f 44/64/1 38/57/1 47/67/1
f 17/29/1 37/56/1 38/57/1
f 24/37/3 35/52/3 41/60/3
f 51/72/1 36/55/1 54/75/1
f 45/65/4 2/6/4 42/62/4
f 4/10/5 27/41/5 14/23/5
f 23/36/4 5/11/4 10/18/4
f 21/34/4 7/14/4 5/11/4
f 52/73/4 10/18/4 49/70/4
f 36/54/6 27/42/6 40/59/6
f 28/43/7 19/31/7 1/1/7
f 53/74/1 1/3/1 49/69/1
f 25/39/8 32/48/8 2/4/8
f 30/46/1 5/12/1 7/15/1
f 46/66/1 7/15/1 42/61/1
f 29/45/1 10/19/1 5/12/1
f 28/43/9 40/59/9 33/50/9
f 54/75/1 28/44/1 53/74/1
f 41/60/10 32/48/10 34/51/10
f 38/57/1 29/45/1 30/46/1
f 47/67/1 30/46/1 46/66/1
f 37/56/1 31/47/1 29/45/1
f 35/53/1 46/66/1 32/49/1
f 32/49/1 42/61/1 2/5/1
f 22/35/4 42/62/4 7/14/4
f 15/27/1 47/67/1 35/53/1
f 15/27/1 43/63/1 44/64/1
f 39/58/1 53/74/1 31/47/1
f 31/47/1 49/69/1 10/19/1
f 19/32/4 49/70/4 1/2/4
f 18/30/1 54/75/1 39/58/1
f 9/17/1 50/71/1 48/68/1
f 9/17/1 51/72/1 18/30/1
f 95/138/11 56/77/11 69/98/11
f 109/158/12 56/77/12 103/146/12
f 111/160/13 55/76/13 104/147/13
f 61/84/14 105/148/14 106/151/14
f 63/87/15 74/104/15 76/108/15
f 92/135/13 106/152/13 110/159/13
f 74/105/16 61/84/16 75/106/16
f 98/141/11 76/109/11 100/143/11
f 105/149/17 63/88/17 107/154/17
f 94/137/1 62/86/1 93/136/1
f 67/96/1 60/83/1 62/86/1
f 71/100/18 57/78/18 70/99/18
f 55/76/19 108/157/19 104/147/19
f 58/79/20 77/110/20 73/103/20
f 79/114/21 89/131/21 85/127/21
f 80/116/1 88/130/1 86/128/1
f 96/139/1 87/129/1 97/140/1
f 87/129/1 80/116/1 86/128/1
f 102/145/1 79/115/1 85/126/1
f 90/132/22 78/112/22 91/133/22
f 71/101/22 91/133/22 64/90/22
f 102/145/1 65/94/1 99/142/1
f 67/96/1 86/128/1 66/95/1
f 97/140/1 67/96/1 94/137/1
f 66/95/1 88/130/1 68/97/1
f 85/127/21 77/111/21 65/92/21
f 91/134/1 94/137/1 64/91/1
f 78/113/1 97/140/1 91/134/1
f 64/91/1 93/136/1 57/78/1
f 56/77/13 110/159/13 103/146/13
f 75/107/11 92/135/11 95/138/11
f 88/130/1 99/142/1 68/97/1
f 82/121/1 102/145/1 88/130/1
f 55/76/11 100/143/11 72/102/11
f 107/155/13 98/141/13 111/160/13
f 82/121/13 111/160/13 101/144/13
f 103/146/13 96/139/13 78/113/13
f 104/147/23 83/123/23 79/115/23
f 80/117/13 107/156/13 82/120/13
f 110/159/13 81/119/13 96/139/13
f 106/153/13 80/117/13 81/118/13
f 101/144/13 104/147/13 79/115/13
f 84/125/24 103/146/24 78/113/24
f 48/68/1 4/9/1 14/24/1
f 24/37/25 20/33/25 3/7/25
f 8/16/1 6/13/1 16/28/1
f 44/64/1 43/63/1 8/16/1
f 6/13/1 9/17/1 18/30/1
f 12/21/1 13/22/1 9/17/1
f 48/68/1 50/71/1 11/20/1
f 16/28/1 18/30/1 39/58/1
f 44/64/1 17/29/1 38/57/1
f 17/29/1 16/28/1 37/56/1
f 24/37/26 15/26/26 35/52/26
f 51/72/1 14/24/1 36/55/1
f 45/65/4 25/38/4 2/6/4
f 4/10/27 26/40/27 27/41/27
f 23/36/4 21/34/4 5/11/4
f 21/34/4 22/35/4 7/14/4
f 52/73/4 23/36/4 10/18/4
f 36/54/28 14/25/28 27/42/28
f 28/43/29 33/50/29 19/31/29
f 53/74/1 28/44/1 1/3/1
f 25/39/30 34/51/30 32/48/30
f 30/46/1 29/45/1 5/12/1
f 46/66/1 30/46/1 7/15/1
f 29/45/1 31/47/1 10/19/1
f 28/43/9 36/54/9 40/59/9
f 54/75/1 36/55/1 28/44/1
f 41/60/10 35/52/10 32/48/10
f 38/57/1 37/56/1 29/45/1
f 47/67/1 38/57/1 30/46/1
f 37/56/1 39/58/1 31/47/1
f 35/53/1 47/67/1 46/66/1
f 32/49/1 46/66/1 42/61/1
f 22/35/4 45/65/4 42/62/4
f 15/27/1 44/64/1 47/67/1
f 15/27/1 3/8/1 43/63/1
f 39/58/1 54/75/1 53/74/1
f 31/47/1 53/74/1 49/69/1
f 19/32/4 52/73/4 49/70/4
f 18/30/1 51/72/1 54/75/1
f 9/17/1 13/22/1 50/71/1
f 9/17/1 48/68/1 51/72/1
f 95/138/11 92/135/11 56/77/11
f 109/158/31 69/98/31 56/77/31
f 111/160/13 98/141/13 55/76/13
f 61/84/32 59/81/32 105/148/32
f 63/87/33 59/80/33 74/104/33
f 92/135/13 61/85/13 106/152/13
f 74/105/34 59/81/34 61/84/34
f 98/141/11 63/89/11 76/109/11
f 105/149/35 59/82/35 63/88/35
f 94/137/1 67/96/1 62/86/1
f 67/96/1 66/95/1 60/83/1
f 71/100/36 64/91/36 57/78/36
f 55/76/37 72/102/37 108/157/37
f 58/79/38 65/93/38 77/110/38
f 79/114/39 83/122/39 89/131/39
f 80/116/1 82/121/1 88/130/1
f 96/139/1 81/119/1 87/129/1
f 87/129/1 81/119/1 80/116/1
f 102/145/1 101/144/1 79/115/1
f 90/132/40 84/124/40 78/112/40
f 71/101/22 90/132/22 91/133/22
f 102/145/1 85/126/1 65/94/1
f 67/96/1 87/129/1 86/128/1
f 97/140/1 87/129/1 67/96/1
f 66/95/1 86/128/1 88/130/1
f 85/127/21 89/131/21 77/111/21
f 91/134/1 97/140/1 94/137/1
f 78/113/1 96/139/1 97/140/1
f 64/91/1 94/137/1 93/136/1
f 56/77/13 92/135/13 110/159/13
f 75/107/11 61/85/11 92/135/11
f 88/130/1 102/145/1 99/142/1
f 82/121/1 101/144/1 102/145/1
f 55/76/11 98/141/11 100/143/11
f 107/155/13 63/89/13 98/141/13
f 82/121/13 107/155/13 111/160/13
f 103/146/13 110/159/13 96/139/13
f 104/147/41 108/157/41 83/123/41
f 80/117/42 105/150/42 107/156/42
f 110/159/13 106/152/13 81/119/13
f 106/153/43 105/150/43 80/117/43
f 101/144/13 111/160/13 104/147/13
f 84/125/44 109/158/44 103/146/44
