# Blender v3.6.4 OBJ File: ''
# www.blender.org
mtllib playerBullet.mtl
o Cube
v -0.840879 0.135748 0.000000
v -0.840879 -0.135748 0.000000
v 1.000000 1.000000 0.000000
v 1.000000 -1.000000 0.000000
v -1.000000 0.000000 0.000000
v 0.500000 0.000000 -0.379200
v 0.500000 0.000000 0.379200
v 0.000000 -1.000000 0.000000
v 0.000000 1.000000 0.000000
v 0.000000 0.000000 0.379200
v 0.000000 0.000000 -0.379200
v 1.000000 -1.000000 0.000000
v -0.840879 0.135748 0.000000
v 1.000000 1.000000 0.000000
v -0.840879 -0.135748 0.000000
v -1.000000 0.000000 0.000000
v 0.277726 0.000000 0.000000
v 0.000000 -1.000000 0.000000
v 0.000000 1.000000 0.000000
v 0.500000 -1.000000 0.000000
v 0.500000 1.000000 0.000000
v 0.500000 -1.000000 0.000000
v 0.500000 1.000000 0.000000
vt 0.417927 0.559882
vt 0.417927 0.559882
vt 0.417927 0.559882
vt 0.283219 0.142712
vt 0.020733 0.142635
vt 0.020733 0.020733
vt 0.177865 0.559882
vt 0.177865 0.849639
vt 0.070200 0.842850
vt 0.716781 0.274535
vt 0.718877 0.058160
vt 0.750000 0.020733
vt 0.781123 0.060895
vt 0.979267 0.274611
vt 0.219330 0.849639
vt 0.376462 0.619669
vt 0.219330 0.849639
vt 0.479267 0.162781
vt 0.479267 0.040878
vt 0.281123 0.480990
vt 0.283219 0.264615
vt 0.479267 0.284684
vt 0.716781 0.396438
vt 0.979267 0.396514
vt 0.520733 0.376368
vt 0.218877 0.478255
vt 0.250000 0.518417
vt 0.417927 0.559882
vt 0.417927 0.559882
vt 0.417927 0.559882
vt 0.417927 0.559882
vt 0.417927 0.559882
vt 0.417927 0.559882
vt 0.219330 0.559882
vt 0.417927 0.559882
vt 0.417927 0.559882
vt 0.417927 0.559882
vt 0.417927 0.559882
vt 0.417927 0.559882
vt 0.020733 0.789852
vt 0.417927 0.559882
vt 0.417927 0.559882
vt 0.520733 0.498271
vt 0.979267 0.518417
vt 0.020733 0.264538
vt 0.417927 0.559882
vt 0.417927 0.559882
vt 0.177865 0.559882
vt 0.520733 0.254466
vt 0.326995 0.566671
vn 0.0000 0.0000 1.0000
vn 0.0000 0.3546 -0.9350
vn 0.7322 -0.5288 -0.4292
vn -0.3274 0.3838 0.8634
vn -0.3424 -0.3331 0.8785
vn 0.0000 -0.3546 -0.9350
vn -0.3424 -0.3331 -0.8785
vn 0.0000 -0.3546 0.9350
vn 0.0000 0.3546 0.9350
vn -0.3274 0.3838 -0.8634
vn 0.7322 -0.5288 0.4292
vn -0.3424 0.3331 0.8785
vn -0.3274 -0.3838 0.8634
vn 0.7322 0.5288 -0.4292
vn -0.3274 -0.3838 -0.8634
vn -0.3424 0.3331 -0.8785
vn 0.7322 0.5288 0.4292
usemtl Material
s off
f 14/1/1 21/2/1 23/3/1
f 6/4/2 21/5/2 3/6/2
f 14/7/3 7/8/3 17/9/3
f 10/10/4 1/11/4 5/12/4
f 10/10/5 2/13/5 8/14/5
f 12/15/1 7/16/1 4/17/1
f 20/18/6 6/4/6 4/19/6
f 2/20/7 11/21/7 8/22/7
f 7/23/8 8/14/8 20/24/8
f 21/25/9 10/10/9 7/23/9
f 1/26/10 11/21/10 5/27/10
f 9/28/1 13/29/1 1/30/1
f 8/31/1 22/32/1 20/33/1
f 6/34/1 12/15/1 4/17/1
f 5/35/1 15/36/1 2/37/1
f 1/30/1 16/38/1 5/35/1
f 2/37/1 18/39/1 8/31/1
f 6/40/11 14/7/11 17/9/11
f 20/33/1 12/41/1 4/42/1
f 7/23/9 3/43/9 21/25/9
f 4/44/8 7/23/8 20/24/8
f 11/21/6 20/18/6 8/22/6
f 9/45/2 6/4/2 11/21/2
f 23/3/1 9/28/1 19/46/1
f 14/1/1 3/47/1 21/2/1
f 14/7/1 3/48/1 7/8/1
f 10/10/12 9/49/12 1/11/12
f 10/10/13 5/12/13 2/13/13
f 12/15/14 17/50/14 7/16/14
f 2/20/15 5/27/15 11/21/15
f 7/23/8 10/10/8 8/14/8
f 21/25/9 9/49/9 10/10/9
f 1/26/16 9/45/16 11/21/16
f 9/28/1 19/46/1 13/29/1
f 8/31/1 18/39/1 22/32/1
f 6/34/17 17/50/17 12/15/17
f 5/35/1 16/38/1 15/36/1
f 1/30/1 13/29/1 16/38/1
f 2/37/1 15/36/1 18/39/1
f 6/40/1 3/48/1 14/7/1
f 20/33/1 22/32/1 12/41/1
f 11/21/6 6/4/6 20/18/6
f 9/45/2 21/5/2 6/4/2
f 23/3/1 21/2/1 9/28/1
