# Blender 3.5.0
# www.blender.org
mtllib playerBullet.mtl
o Cube
v 0.840879 0.135748 -0.000000
v 0.840879 -0.135748 0.000000
v -1.000000 1.000000 -0.000000
v -1.000000 -1.000000 0.000000
v 1.000000 0.000000 0.000000
v -0.500000 0.000000 0.379200
v -0.500000 -0.000000 -0.379200
v 0.000000 -1.000000 0.000000
v 0.000000 1.000000 -0.000000
v 0.000000 -0.000000 -0.379200
v 0.000000 0.000000 0.379200
v -1.000000 -1.000000 0.000000
v 0.840879 0.135748 -0.000000
v -1.000000 1.000000 -0.000000
v 0.840879 -0.135748 0.000000
v 1.000000 0.000000 0.000000
v -0.277726 0.000000 0.000000
v 0.000000 -1.000000 0.000000
v 0.000000 1.000000 -0.000000
v -0.500000 -1.000000 0.000000
v -0.500000 1.000000 -0.000000
v -0.500000 -1.000000 0.000000
v -0.500000 1.000000 -0.000000
vn -0.0000 -0.0000 -1.0000
vn -0.0000 0.3546 0.9350
vn -0.7322 -0.5288 0.4292
vn 0.3274 0.3838 -0.8634
vn 0.3424 -0.3331 -0.8785
vn -0.0000 -0.3546 0.9350
vn 0.3424 -0.3331 0.8785
vn -0.0000 -0.3546 -0.9350
vn -0.0000 0.3546 -0.9350
vn 0.3274 0.3838 0.8634
vn -0.7322 -0.5288 -0.4292
vn 0.3424 0.3331 -0.8785
vn 0.3274 -0.3838 -0.8634
vn -0.7322 0.5288 0.4292
vn 0.3274 -0.3838 0.8634
vn 0.3424 0.3331 0.8785
vn -0.7322 0.5288 -0.4292
vt 0.718877 0.058160
vt 0.218877 0.478255
vt 0.417927 0.559882
vt 0.781123 0.060895
vt 0.281123 0.480990
vt 0.417927 0.559882
vt 0.020733 0.020733
vt 0.520733 0.498271
vt 0.417927 0.559882
vt 0.177865 0.559882
vt 0.479267 0.040878
vt 0.219330 0.849639
vt 0.417927 0.559882
vt 0.979267 0.518417
vt 0.750000 0.020733
vt 0.250000 0.518417
vt 0.417927 0.559882
vt 0.219330 0.559882
vt 0.020733 0.789852
vt 0.283219 0.142712
vt 0.177865 0.849639
vt 0.376462 0.619669
vt 0.716781 0.396438
vt 0.479267 0.284684
vt 0.979267 0.274611
vt 0.417927 0.559882
vt 0.520733 0.254466
vt 0.020733 0.264538
vt 0.417927 0.559882
vt 0.716781 0.274535
vt 0.283219 0.264615
vt 0.219330 0.849639
vt 0.417927 0.559882
vt 0.417927 0.559882
vt 0.417927 0.559882
vt 0.177865 0.559882
vt 0.417927 0.559882
vt 0.417927 0.559882
vt 0.070200 0.842850
vt 0.326995 0.566671
vt 0.417927 0.559882
vt 0.417927 0.559882
vt 0.979267 0.396514
vt 0.417927 0.559882
vt 0.479267 0.162781
vt 0.520733 0.376368
vt 0.020733 0.142635
vt 0.417927 0.559882
vt 0.417927 0.559882
vt 0.417927 0.559882
s 0
usemtl Material.013
f 14/35/1 21/48/1 23/50/1
f 6/20/2 21/47/2 3/7/2
f 14/36/3 7/21/3 17/39/3
f 10/30/4 1/1/4 5/15/4
f 10/30/5 2/4/5 8/25/5
f 12/32/1 7/22/1 4/12/1
f 20/45/6 6/20/6 4/11/6
f 2/5/7 11/31/7 8/24/7
f 7/23/8 8/25/8 20/43/8
f 21/46/9 10/30/9 7/23/9
f 1/2/10 11/31/10 5/16/10
f 9/29/1 13/34/1 1/3/1
f 8/26/1 22/49/1 20/44/1
f 6/18/1 12/32/1 4/12/1
f 5/17/1 15/37/1 2/6/1
f 1/3/1 16/38/1 5/17/1
f 2/6/1 18/41/1 8/26/1
f 6/19/11 14/36/11 17/39/11
f 20/44/1 12/33/1 4/13/1
f 7/23/9 3/8/9 21/46/9
f 4/14/8 7/23/8 20/43/8
f 11/31/6 20/45/6 8/24/6
f 9/28/2 6/20/2 11/31/2
f 23/50/1 9/29/1 19/42/1
f 14/35/1 3/9/1 21/48/1
f 14/36/1 3/10/1 7/21/1
f 10/30/12 9/27/12 1/1/12
f 10/30/13 5/15/13 2/4/13
f 12/32/14 17/40/14 7/22/14
f 2/5/15 5/16/15 11/31/15
f 7/23/8 10/30/8 8/25/8
f 21/46/9 9/27/9 10/30/9
f 1/2/16 9/28/16 11/31/16
f 9/29/1 19/42/1 13/34/1
f 8/26/1 18/41/1 22/49/1
f 6/18/17 17/40/17 12/32/17
f 5/17/1 16/38/1 15/37/1
f 1/3/1 13/34/1 16/38/1
f 2/6/1 15/37/1 18/41/1
f 6/19/1 3/10/1 14/36/1
f 20/44/1 22/49/1 12/33/1
f 11/31/6 6/20/6 20/45/6
f 9/28/2 21/47/2 6/20/2
f 23/50/1 21/48/1 9/29/1
