# Blender v3.6.4 OBJ File: 'toge.blend'
# www.blender.org
mtllib spikePrick.mtl
o 球.004
v -0.035297 -0.773660 -0.480985
v -1.400048 -1.371506 0.011353
v -0.684264 -0.056537 -0.480985
v -0.035297 -0.773660 0.560880
v -0.684263 -0.056537 0.560880
v -0.684264 -0.056537 0.011352
v -0.035297 -0.773660 0.011352
v -0.352313 -0.423350 -0.480985
v -0.352313 -0.423350 0.560880
v -0.352313 -0.423350 0.011352
v 0.077992 0.768803 -0.480985
v 1.423555 1.408667 0.011352
v 0.748876 0.072141 -0.480985
v 0.077992 0.768803 0.560880
v 0.748876 0.072141 0.560880
v 0.748876 0.072141 0.011352
v 0.077992 0.768803 0.011352
v 0.405714 0.428489 -0.480985
v 0.405714 0.428489 0.560880
v 0.405714 0.428489 0.011352
v -0.711822 0.050247 -0.480985
v -1.376931 1.383511 0.011353
v -0.027928 0.734141 -0.480985
v -0.711822 0.050247 0.560880
v -0.027928 0.734141 0.560880
v -0.027928 0.734141 0.011352
v -0.711822 0.050247 0.011352
v -0.377745 0.384324 -0.480985
v -0.377744 0.384324 0.560880
v -0.377744 0.384324 0.011352
v 0.054018 -0.715593 0.509003
v 1.378049 -1.371469 -0.019325
v 0.737913 -0.031699 0.509003
v 0.035170 -0.696745 -0.532520
v 0.719065 -0.012851 -0.532520
v 0.729006 -0.022792 0.016827
v 0.045112 -0.706687 0.016827
v 0.388096 -0.381516 0.509003
v 0.369248 -0.362668 -0.532520
v 0.379189 -0.372609 0.016827
vt 0.076791 0.833503
vt 0.103402 0.905433
vt 0.048926 0.846138
vt 0.081359 0.447836
vt 0.110417 0.535560
vt 0.048926 0.458585
vt 0.786400 0.258277
vt 0.812860 0.338806
vt 0.761130 0.270795
vt 0.640410 0.128748
vt 0.669222 0.048926
vt 0.669222 0.139090
vt 0.771191 0.832313
vt 0.800332 0.864689
vt 0.771191 0.865550
vt 0.800332 0.894467
vt 0.771191 0.895328
vt 0.608251 0.117204
vt 0.110417 0.438205
vt 0.740677 0.866451
vt 0.740677 0.896229
vt 0.740677 0.833214
vt 0.812860 0.245169
vt 0.103402 0.821436
vt 0.800332 0.831452
vt 0.635338 0.253802
vt 0.663278 0.342364
vt 0.606082 0.262843
vt 0.271291 0.522963
vt 0.303201 0.439319
vt 0.303201 0.535179
vt 0.455896 0.725064
vt 0.482134 0.637971
vt 0.482134 0.735333
vt 0.771781 0.519201
vt 0.800407 0.443469
vt 0.800407 0.530048
vt 0.951074 0.672216
vt 0.919689 0.699911
vt 0.919689 0.670717
vt 0.891570 0.698568
vt 0.891570 0.669373
vt 0.739829 0.507094
vt 0.242702 0.512019
vt 0.919689 0.640146
vt 0.891570 0.638803
vt 0.951074 0.641646
vt 0.428422 0.714312
vt 0.663278 0.245169
vt 0.951074 0.701411
vt 0.613210 0.729139
vt 0.619232 0.638803
vt 0.642825 0.729139
vt 0.459359 0.454353
vt 0.487076 0.540120
vt 0.428422 0.466502
vt 0.270563 0.895387
vt 0.297171 0.825693
vt 0.297171 0.907588
vt 0.768654 0.720786
vt 0.793719 0.638803
vt 0.793719 0.733601
vt 0.612090 0.891776
vt 0.582737 0.857603
vt 0.612090 0.857608
vt 0.582737 0.826991
vt 0.612090 0.826995
vt 0.740677 0.706483
vt 0.487076 0.443469
vt 0.642825 0.857613
vt 0.642825 0.827000
vt 0.642825 0.891781
vt 0.242702 0.882610
vt 0.584928 0.729139
vt 0.582737 0.891771
vt 0.614109 0.452426
vt 0.641977 0.540951
vt 0.584928 0.461805
vt 0.269415 0.713120
vt 0.299232 0.633030
vt 0.299232 0.727841
vt 0.796689 0.134265
vt 0.785859 0.048926
vt 0.824971 0.134265
vt 0.080313 0.723585
vt 0.088709 0.633412
vt 0.108435 0.723585
vt 0.451797 0.898062
vt 0.422825 0.863788
vt 0.451797 0.863904
vt 0.422825 0.833184
vt 0.451797 0.833300
vt 0.048926 0.723585
vt 0.242702 0.699930
vt 0.482134 0.864025
vt 0.482134 0.833421
vt 0.482134 0.898183
vt 0.767074 0.134265
vt 0.641977 0.443469
vt 0.422825 0.897947
vn -0.2440 -0.2208 -0.9443
vn -0.8783 0.4781 0.0000
vn -0.2687 -0.2432 0.9320
vn 0.4013 -0.9160 0.0000
vn 0.7415 0.6710 0.0000
vn 0.2370 0.2282 -0.9443
vn 0.8927 -0.4506 -0.0000
vn 0.2611 0.2514 0.9320
vn -0.4295 0.9031 0.0000
vn -0.7203 -0.6937 0.0000
vn -0.2327 0.2327 -0.9443
vn 0.4337 0.9010 0.0000
vn -0.2563 0.2563 0.9320
vn -0.8948 -0.4464 0.0000
vn 0.7071 -0.7071 0.0000
vn 0.2497 -0.2497 0.9356
vn 0.9010 0.4338 -0.0085
vn 0.2393 -0.2393 -0.9410
vn -0.4465 -0.8948 -0.0081
vn -0.7069 0.7069 0.0256
usemtl マテリアル
s off
f 8/1/1 2/2/1 3/3/1
f 6/4/2 2/5/2 5/6/2
f 9/7/3 2/8/3 4/9/3
f 7/10/4 2/11/4 1/12/4
f 9/13/5 7/14/5 10/15/5
f 10/15/5 1/16/5 8/17/5
f 4/18/4 2/11/4 7/10/4
f 3/19/2 2/5/2 6/4/2
f 6/20/5 8/17/5 3/21/5
f 5/22/5 10/15/5 6/20/5
f 5/23/3 2/8/3 9/7/3
f 1/24/1 2/2/1 8/1/1
f 9/13/5 4/25/5 7/14/5
f 10/15/5 7/14/5 1/16/5
f 6/20/5 10/15/5 8/17/5
f 5/22/5 9/13/5 10/15/5
f 18/26/6 12/27/6 13/28/6
f 16/29/7 12/30/7 15/31/7
f 19/32/8 12/33/8 14/34/8
f 17/35/9 12/36/9 11/37/9
f 19/38/10 17/39/10 20/40/10
f 20/40/10 11/41/10 18/42/10
f 14/43/9 12/36/9 17/35/9
f 13/44/7 12/30/7 16/29/7
f 16/45/10 18/42/10 13/46/10
f 15/47/10 20/40/10 16/45/10
f 15/48/8 12/33/8 19/32/8
f 11/49/6 12/27/6 18/26/6
f 19/38/10 14/50/10 17/39/10
f 20/40/10 17/39/10 11/41/10
f 16/45/10 20/40/10 18/42/10
f 15/47/10 19/38/10 20/40/10
f 28/51/11 22/52/11 23/53/11
f 26/54/12 22/55/12 25/56/12
f 29/57/13 22/58/13 24/59/13
f 27/60/14 22/61/14 21/62/14
f 29/63/15 27/64/15 30/65/15
f 30/65/15 21/66/15 28/67/15
f 24/68/14 22/61/14 27/60/14
f 23/69/12 22/55/12 26/54/12
f 26/70/15 28/67/15 23/71/15
f 25/72/15 30/65/15 26/70/15
f 25/73/13 22/58/13 29/57/13
f 21/74/11 22/52/11 28/51/11
f 29/63/15 24/75/15 27/64/15
f 30/65/15 27/64/15 21/66/15
f 26/70/15 30/65/15 28/67/15
f 25/72/15 29/63/15 30/65/15
f 38/76/16 32/77/16 33/78/16
f 36/79/17 32/80/17 35/81/17
f 39/82/18 32/83/18 34/84/18
f 37/85/19 32/86/19 31/87/19
f 39/88/20 37/89/20 40/90/20
f 40/90/20 31/91/20 38/92/20
f 34/93/19 32/86/19 37/85/19
f 33/94/17 32/80/17 36/79/17
f 36/95/20 38/92/20 33/96/20
f 35/97/20 40/90/20 36/95/20
f 35/98/18 32/83/18 39/82/18
f 31/99/16 32/77/16 38/76/16
f 39/88/20 34/100/20 37/89/20
f 40/90/20 37/89/20 31/91/20
f 36/95/20 40/90/20 38/92/20
f 35/97/20 39/88/20 40/90/20
