# Blender v3.6.4 OBJ File: ''
# www.blender.org
mtllib Player.mtl
o Cube
v -0.288515 1.000000 0.000000
v -0.475781 -1.000000 0.481755
v -0.611915 -0.188488 -0.395963
v -0.475781 -1.000000 -0.481755
v 0.288515 1.000000 0.000000
v 0.475781 -1.000000 0.481755
v -0.611915 -0.188488 0.395963
v 0.475781 -1.000000 -0.481755
v -1.214286 0.022812 0.492094
v 1.214286 0.022812 -0.492094
v -1.214286 0.022812 -0.492094
v 1.214286 0.022812 0.492094
v 0.000000 -1.000000 0.481755
v 0.000000 1.101791 0.000000
v 0.000000 -1.000000 -0.481755
v 0.611915 -0.188488 0.395963
v 0.000000 -0.070170 0.951465
v 0.000000 -0.070170 -0.951465
v 0.611915 -0.188488 -0.395963
v 0.000000 -0.270076 -0.722072
v 0.000000 -0.270076 0.722072
v -0.473444 -0.831713 0.362679
v -0.473444 -0.831713 -0.362679
v 0.473444 -0.831713 0.362679
v 0.473444 -0.831713 -0.362679
v 0.000000 -0.566116 -0.633341
v 0.000000 -0.566116 0.633341
v 0.443333 -1.158501 0.481755
v 0.443333 -1.158501 -0.481755
v 0.000000 -1.273390 0.481755
v 0.000000 -1.273390 -0.481755
v -0.443333 -1.158501 -0.481755
v -0.443333 -1.158501 0.481755
v 0.289219 -0.698915 -0.529324
v 0.372460 -0.160360 -0.600507
v 0.144257 1.050896 0.000000
v 0.607143 -0.060215 0.721779
v 0.372460 -0.160360 0.600507
v 0.237890 -1.000000 -0.481755
v 0.607143 -0.060215 -0.721779
v 0.237890 -1.000000 0.481755
v 0.289219 -0.698915 0.529324
v 0.283463 -1.000610 0.481755
v 0.283463 -1.000610 -0.481755
v -0.237890 -1.000000 -0.481755
v -0.372460 -0.160360 -0.600507
v -0.607143 -0.060215 0.721779
v -0.237890 -1.000000 0.481755
v -0.607143 -0.060215 -0.721779
v -0.144257 1.050896 0.000000
v -0.372460 -0.160360 0.600507
v -0.289219 -0.698915 0.529324
v -0.289219 -0.698915 -0.529324
v -0.283463 -1.000610 -0.481755
v -0.283463 -1.000610 0.481755
v 0.718728 -1.000000 0.000000
v -0.718728 -1.000000 0.000000
v -1.217038 0.022812 0.000000
v 1.217038 0.022812 0.000000
v 0.772802 -0.188488 0.000000
v -0.772802 -0.188488 0.000000
v -0.626775 -0.831713 0.000000
v 0.626775 -0.831713 0.000000
v 0.686280 -1.158501 0.000000
v -0.686280 -1.158501 0.000000
v 0.000000 -1.273390 0.000000
v 0.526411 -1.000610 0.000000
v -0.526411 -1.000610 0.000000
vt 0.483471 0.312500
vt 0.429235 0.375000
vt 0.429235 0.312500
vt 0.500000 0.937500
vt 0.625000 1.000000
vt 0.500000 1.000000
vt 0.500000 0.000000
vt 0.500000 0.250000
vt 0.500000 0.125000
vt 0.375000 0.250000
vt 0.375000 0.125000
vt 0.375000 0.125000
vt 0.500000 0.500000
vt 0.500000 0.750000
vt 0.500000 0.625000
vt 0.500000 0.437500
vt 0.625000 0.500000
vt 0.483471 0.500000
vt 0.483471 0.437500
vt 0.483471 0.625000
vt 0.483471 0.750000
vt 0.483471 0.125000
vt 0.483471 0.250000
vt 0.483471 1.000000
vt 0.483471 0.937500
vt 0.483471 0.812500
vt 0.500000 0.875000
vt 0.483471 0.875000
vt 0.500000 0.375000
vt 0.483471 0.375000
vt 0.625000 0.312500
vt 0.500000 0.312500
vt 0.375000 1.000000
vt 0.375000 0.937500
vt 0.375000 0.937500
vt 0.625000 0.812500
vt 0.500000 0.812500
vt 0.429235 0.875000
vt 0.429235 0.812500
vt 0.429235 0.937500
vt 0.429235 1.000000
vt 0.429235 0.125000
vt 0.429235 0.250000
vt 0.429235 0.625000
vt 0.429235 0.750000
vt 0.429235 0.437500
vt 0.429235 0.500000
vt 0.375000 0.500000
vt 0.375000 0.437500
vt 0.375000 0.625000
vt 0.375000 0.750000
vt 0.375000 0.875000
vt 0.375000 0.812500
vt 0.375000 0.375000
vt 0.375000 0.312500
vt 0.312500 0.625000
vt 0.375000 0.750000
vt 0.312500 0.750000
vt 0.250000 0.625000
vt 0.187500 0.750000
vt 0.187500 0.625000
vt 0.375000 0.625000
vt 0.375000 0.437500
vt 0.375000 0.312500
vt 0.375000 0.812500
vt 0.125000 0.750000
vt 0.125000 0.625000
vt 0.375000 0.250000
vt 0.375000 0.875000
vt 0.625000 0.250000
vt 0.625000 0.937500
vt 0.375000 0.375000
vt 0.250000 0.750000
vt 0.625000 0.750000
vt 0.625000 0.437500
vt 0.312500 0.500000
vt 0.250000 0.500000
vt 0.125000 0.500000
vt 0.375000 0.500000
vt 0.187500 0.500000
vt 0.429235 0.000000
vt 0.375000 0.000000
vt 0.483471 0.000000
vt 0.375000 0.000000
vt 0.625000 0.375000
vt 0.375000 1.000000
vt 0.625000 0.875000
vn 0.2651 -0.1665 0.9497
vn 0.2128 0.5928 -0.7768
vn 0.0000 1.0000 0.0000
vn 0.8783 -0.1798 0.4429
vn -0.2128 0.5928 0.7768
vn -0.2017 -0.9103 0.3614
vn -0.3104 -0.9422 -0.1261
vn 0.3104 -0.9422 0.1261
vn 0.2017 -0.9103 -0.3614
vn -0.4001 -0.6909 -0.6021
vn 0.4001 -0.6909 0.6021
vn 0.2740 0.6016 0.7504
vn 0.0000 0.0000 -1.0000
vn -0.2740 0.6016 -0.7504
vn -0.2651 -0.1665 -0.9497
vn 0.5918 -0.1682 -0.7883
vn 0.8998 -0.2134 0.3804
vn -0.8998 -0.2134 -0.3804
vn -0.5918 -0.1682 0.7883
vn 0.0000 -0.1561 0.9877
vn -0.8477 0.3142 -0.4275
vn 0.8477 0.3142 0.4275
vn 0.0000 -0.1561 -0.9877
vn 0.6623 -0.6706 0.3340
vn 0.4482 -0.8649 -0.2260
vn -0.8783 -0.1798 -0.4429
vn 0.0000 0.0000 1.0000
vn 0.2651 -0.1665 -0.9497
vn -0.6623 -0.6706 0.3340
vn 0.2128 0.5928 0.7768
vn 0.2017 -0.9103 0.3614
vn 0.4001 -0.6909 -0.6021
vn 0.2740 0.6016 -0.7504
vn 0.5918 -0.1682 0.7883
vn -0.6934 -0.7206 0.0000
vn -0.2651 -0.1665 0.9497
vn -0.5918 -0.1682 -0.7883
vn -0.2128 0.5928 -0.7768
vn -0.2017 -0.9103 -0.3614
vn -0.4001 -0.6909 0.6021
vn -0.2740 0.6016 0.7504
vn -0.6623 -0.6706 -0.3340
vn -0.8783 -0.1798 0.4429
vn 0.4482 -0.8649 0.2260
vn 0.6623 -0.6706 -0.3340
vn 0.8477 0.3142 -0.4275
vn -0.8477 0.3142 0.4275
vn -0.8998 -0.2134 0.3804
vn 0.8998 -0.2134 -0.3804
vn 0.3104 -0.9422 -0.1261
vn -0.3104 -0.9422 0.1261
vn 0.8783 -0.1798 -0.4429
vn 0.3692 -0.2668 0.8902
vn 0.2090 0.5925 -0.7780
vn 0.7259 0.6878 0.0000
vn -0.7259 0.6878 0.0000
vn -0.2090 0.5925 0.7780
vn -0.2579 -0.8977 0.3572
vn -0.4295 -0.9030 -0.0024
vn 0.4295 -0.9030 0.0024
vn 0.2579 -0.8977 -0.3572
vn -0.1700 -0.8958 -0.4107
vn 0.1700 -0.8958 0.4107
vn 0.2171 0.6153 0.7578
vn -0.2171 0.6153 -0.7578
vn -0.3692 -0.2668 -0.8902
vn 0.6234 -0.1964 -0.7568
vn 0.9066 -0.2058 0.3684
vn -0.9066 -0.2058 -0.3684
vn -0.6234 -0.1964 0.7568
vn -0.7562 0.3849 0.5292
vn -0.8227 0.4496 -0.3478
vn 0.8227 0.4496 0.3478
vn 0.7562 0.3849 -0.5292
vn -0.1848 -0.3241 -0.9278
vn 0.1848 -0.3241 0.9278
vn 0.6934 -0.7206 0.0000
vn 0.3692 -0.2668 -0.8902
vn 0.1848 -0.3241 -0.9278
vn 0.7562 0.3849 0.5292
vn 0.2090 0.5925 0.7780
vn 0.2579 -0.8977 0.3572
vn 0.1700 -0.8958 -0.4107
vn 0.2171 0.6153 -0.7578
vn 0.6234 -0.1964 0.7568
vn -0.4482 -0.8649 -0.2260
vn -0.7562 0.3849 -0.5292
vn -0.1848 -0.3241 0.9278
vn -0.3692 -0.2668 0.8902
vn -0.6234 -0.1964 -0.7568
vn -0.2090 0.5925 -0.7780
vn -0.2579 -0.8977 -0.3572
vn -0.1700 -0.8958 0.4107
vn -0.2171 0.6153 0.7578
vn -0.4482 -0.8649 0.2260
vn 0.8227 0.4496 -0.3478
vn -0.8227 0.4496 0.3478
vn -0.9066 -0.2058 0.3684
vn 0.9066 -0.2058 -0.3684
vn 0.4295 -0.9030 -0.0024
vn -0.4295 -0.9030 0.0024
usemtl Material
s off
f 38/1/1 27/2/1 42/3/1
f 40/4/2 5/5/2 10/6/2
f 10/7/3 12/8/3 59/9/3
f 6/10/4 64/11/4 56/12/4
f 9/13/3 11/14/3 58/15/3
f 47/16/5 1/17/5 9/13/5
f 47/16/6 7/18/6 51/19/6
f 61/20/7 11/14/7 3/21/7
f 60/22/8 12/8/8 16/23/8
f 40/4/9 19/24/9 35/25/9
f 46/26/10 18/27/10 20/28/10
f 38/1/11 17/29/11 21/30/11
f 36/31/12 17/29/12 37/32/12
f 8/33/13 44/34/13 39/35/13
f 50/36/14 18/27/14 49/37/14
f 46/26/15 26/38/15 53/39/15
f 34/40/16 19/24/16 25/41/16
f 63/42/17 16/23/17 24/43/17
f 62/44/18 3/21/18 23/45/18
f 52/46/19 7/18/19 22/47/19
f 52/46/20 2/48/20 48/49/20
f 57/50/21 23/45/21 4/51/21
f 56/12/22 24/43/22 6/10/22
f 34/40/23 8/33/23 39/35/23
f 53/39/23 15/52/23 45/53/23
f 42/3/20 13/54/20 41/55/20
f 68/56/24 32/57/24 54/58/24
f 66/59/25 44/60/25 67/61/25
f 4/51/26 65/62/26 57/50/26
f 2/48/27 55/63/27 48/49/27
f 13/54/27 43/64/27 41/55/27
f 15/52/13 54/65/13 45/53/13
f 26/38/28 35/25/28 34/40/28
f 67/61/29 29/66/29 64/67/29
f 6/10/27 43/64/27 28/68/27
f 15/52/23 34/40/23 39/35/23
f 15/52/13 44/34/13 31/69/13
f 6/10/20 42/3/20 41/55/20
f 5/70/30 37/32/30 12/8/30
f 16/23/31 37/32/31 38/1/31
f 18/27/32 35/25/32 20/28/32
f 18/27/33 36/71/33 40/4/33
f 16/23/34 42/3/34 24/43/34
f 4/51/13 54/65/13 32/57/13
f 13/54/27 55/63/27 30/72/27
f 66/59/35 54/58/35 31/73/35
f 4/51/23 53/39/23 45/53/23
f 13/54/20 52/46/20 48/49/20
f 27/2/36 51/19/36 52/46/36
f 3/21/37 53/39/37 23/45/37
f 1/74/38 49/37/38 11/14/38
f 3/21/39 49/37/39 46/26/39
f 17/29/40 51/19/40 21/30/40
f 17/29/41 50/75/41 47/16/41
f 55/76/35 66/59/35 30/77/35
f 28/78/42 67/61/42 64/67/42
f 2/48/43 65/62/43 33/79/43
f 43/80/44 66/59/44 67/61/44
f 33/79/45 68/56/45 55/76/45
f 25/81/46 56/12/46 8/82/46
f 22/47/47 57/50/47 2/48/47
f 7/18/48 62/44/48 22/47/48
f 19/83/49 63/42/49 25/81/49
f 10/7/50 60/22/50 19/83/50
f 9/13/51 61/20/51 7/18/51
f 8/82/52 64/11/52 29/84/52
f 38/1/53 21/30/53 27/2/53
f 40/4/54 36/71/54 5/5/54
f 10/7/55 5/70/55 12/8/55
f 6/10/4 28/68/4 64/11/4
f 9/13/56 1/74/56 11/14/56
f 47/16/57 50/75/57 1/17/57
f 47/16/58 9/13/58 7/18/58
f 61/20/59 58/15/59 11/14/59
f 60/22/60 59/9/60 12/8/60
f 40/4/61 10/6/61 19/24/61
f 46/26/62 49/37/62 18/27/62
f 38/1/63 37/32/63 17/29/63
f 36/31/64 14/85/64 17/29/64
f 8/33/13 29/86/13 44/34/13
f 50/36/65 14/87/65 18/27/65
f 46/26/66 20/28/66 26/38/66
f 34/40/67 35/25/67 19/24/67
f 63/42/68 60/22/68 16/23/68
f 62/44/69 61/20/69 3/21/69
f 52/46/70 51/19/70 7/18/70
f 52/46/71 22/47/71 2/48/71
f 57/50/72 62/44/72 23/45/72
f 56/12/73 63/42/73 24/43/73
f 34/40/74 25/41/74 8/33/74
f 53/39/75 26/38/75 15/52/75
f 42/3/76 27/2/76 13/54/76
f 68/56/24 65/62/24 32/57/24
f 66/59/77 31/73/77 44/60/77
f 4/51/26 32/57/26 65/62/26
f 2/48/27 33/79/27 55/63/27
f 13/54/27 30/72/27 43/64/27
f 15/52/13 31/69/13 54/65/13
f 26/38/78 20/28/78 35/25/78
f 67/61/29 44/60/29 29/66/29
f 6/10/27 41/55/27 43/64/27
f 15/52/79 26/38/79 34/40/79
f 15/52/13 39/35/13 44/34/13
f 6/10/80 24/43/80 42/3/80
f 5/70/81 36/31/81 37/32/81
f 16/23/82 12/8/82 37/32/82
f 18/27/83 40/4/83 35/25/83
f 18/27/84 14/87/84 36/71/84
f 16/23/85 38/1/85 42/3/85
f 4/51/13 45/53/13 54/65/13
f 13/54/27 48/49/27 55/63/27
f 66/59/86 68/56/86 54/58/86
f 4/51/87 23/45/87 53/39/87
f 13/54/88 27/2/88 52/46/88
f 27/2/89 21/30/89 51/19/89
f 3/21/90 46/26/90 53/39/90
f 1/74/91 50/36/91 49/37/91
f 3/21/92 11/14/92 49/37/92
f 17/29/93 47/16/93 51/19/93
f 17/29/94 14/85/94 50/75/94
f 55/76/95 68/56/95 66/59/95
f 28/78/42 43/80/42 67/61/42
f 2/48/43 57/50/43 65/62/43
f 43/80/77 30/77/77 66/59/77
f 33/79/45 65/62/45 68/56/45
f 25/81/96 63/42/96 56/12/96
f 22/47/97 62/44/97 57/50/97
f 7/18/98 61/20/98 62/44/98
f 19/83/99 60/22/99 63/42/99
f 10/7/100 59/9/100 60/22/100
f 9/13/101 58/15/101 61/20/101
f 8/82/52 56/12/52 64/11/52
o Cube.001
v -1.007997 -2.629068 -0.180785
v -0.106585 -0.834061 -0.180785
v -1.007997 -2.629068 0.180785
v -0.106585 -0.834061 0.180785
v -1.188215 -2.558616 -0.180785
v -0.460031 -0.695890 -0.180785
v -1.188215 -2.558616 0.180785
v -0.460031 -0.695890 0.180785
v -0.422952 -1.476539 -0.124235
v -0.422952 -1.476539 0.124235
v -0.671659 -1.379314 0.127839
v -0.671659 -1.379314 -0.127839
v -0.582558 -1.809600 0.086092
v -0.749254 -1.744434 0.090814
v -0.749254 -1.744434 -0.090814
v -0.582558 -1.809600 -0.086092
v -0.760980 -2.437222 0.153081
v -0.941676 -2.072334 0.154462
v -0.941676 -2.072334 -0.154462
v -0.760980 -2.437222 -0.153081
vt 0.000000 0.000000
vt 0.000000 0.000000
vt 0.000000 0.000000
vt 0.000000 0.000000
vt 0.000000 0.000000
vt 0.000000 0.000000
vt 0.000000 0.000000
vt 0.000000 0.000000
vt 0.000000 0.000000
vt 0.000000 0.000000
vt 0.000000 0.000000
vt 0.000000 0.000000
vt 0.000000 0.000000
vt 0.000000 0.000000
vt 0.000000 0.000000
vt 0.000000 0.000000
vt 0.000000 0.000000
vt 0.000000 0.000000
vt 0.000000 0.000000
vt 0.000000 0.000000
vn 0.8971 -0.4418 0.0000
vn -0.0141 -0.0729 0.9972
vn -0.9552 0.2958 0.0000
vn -0.0141 -0.0729 -0.9972
vn -0.3641 -0.9314 0.0000
vn 0.3641 0.9314 0.0000
vn -0.0138 -0.1073 -0.9941
vn -0.9782 0.2079 0.0000
vn -0.0138 -0.1073 0.9941
vn 0.9018 -0.4322 0.0000
vn 0.9619 -0.2734 0.0000
vn 0.1401 0.0656 0.9880
vn -0.8625 0.5061 0.0000
vn 0.1401 0.0656 -0.9880
vn 0.0374 0.0956 -0.9947
vn -0.8919 0.4522 0.0000
vn 0.0374 0.0956 0.9947
vn 0.6134 -0.7898 0.0000
vn -0.0288 -0.0736 0.9969
vn -0.0288 -0.0736 -0.9969
vn -0.0231 -0.0960 -0.9951
vn -0.0231 -0.0960 0.9951
vn 0.0836 0.1424 0.9863
vn 0.0836 0.1424 -0.9863
vn 0.0577 0.0248 -0.9980
vn 0.0577 0.0248 0.9980
usemtl Material
s off
f 70/88/102 78/89/102 77/90/102
f 78/89/103 76/91/103 79/92/103
f 76/91/104 80/93/104 79/92/104
f 74/94/105 77/90/105 80/93/105
f 75/95/106 69/96/106 71/97/106
f 72/98/107 74/94/107 76/91/107
f 83/99/108 77/90/108 84/100/108
f 79/92/109 83/99/109 82/101/109
f 78/89/110 82/101/110 81/102/110
f 77/90/111 81/102/111 84/100/111
f 84/100/112 85/103/112 88/104/112
f 81/102/113 86/105/113 85/103/113
f 82/101/114 87/106/114 86/105/114
f 87/106/115 84/100/115 88/104/115
f 73/107/116 88/104/116 69/96/116
f 86/105/117 73/107/117 75/95/117
f 85/103/118 75/95/118 71/97/118
f 88/104/119 71/97/119 69/96/119
f 70/88/102 72/98/102 78/89/102
f 78/89/120 72/98/120 76/91/120
f 76/91/104 74/94/104 80/93/104
f 74/94/121 70/88/121 77/90/121
f 75/95/106 73/107/106 69/96/106
f 72/98/107 70/88/107 74/94/107
f 83/99/122 80/93/122 77/90/122
f 79/92/109 80/93/109 83/99/109
f 78/89/123 79/92/123 82/101/123
f 77/90/111 78/89/111 81/102/111
f 84/100/112 81/102/112 85/103/112
f 81/102/124 82/101/124 86/105/124
f 82/101/114 83/99/114 87/106/114
f 87/106/125 83/99/125 84/100/125
f 73/107/126 87/106/126 88/104/126
f 86/105/117 87/106/117 73/107/117
f 85/103/127 86/105/127 75/95/127
f 88/104/119 85/103/119 71/97/119
o Cube.002
v 0.990865 -2.625082 -0.180785
v 0.089454 -0.830075 -0.180785
v 0.990865 -2.625082 0.180785
v 0.089454 -0.830075 0.180785
v 1.171084 -2.554630 -0.180785
v 0.442900 -0.691904 -0.180785
v 1.171084 -2.554630 0.180785
v 0.442900 -0.691904 0.180785
v 0.405821 -1.472554 -0.124235
v 0.405821 -1.472554 0.124235
v 0.654528 -1.375328 0.127839
v 0.654528 -1.375328 -0.127839
v 0.565427 -1.805614 0.086092
v 0.732123 -1.740448 0.090814
v 0.732123 -1.740448 -0.090814
v 0.565427 -1.805614 -0.086092
v 0.743849 -2.433236 0.153081
v 0.924546 -2.068348 0.154462
v 0.924546 -2.068348 -0.154462
v 0.743849 -2.433236 -0.153081
vt 0.000000 0.000000
vt 0.000000 0.000000
vt 0.000000 0.000000
vt 0.000000 0.000000
vt 0.000000 0.000000
vt 0.000000 0.000000
vt 0.000000 0.000000
vt 0.000000 0.000000
vt 0.000000 0.000000
vt 0.000000 0.000000
vt 0.000000 0.000000
vt 0.000000 0.000000
vt 0.000000 0.000000
vt 0.000000 0.000000
vt 0.000000 0.000000
vt 0.000000 0.000000
vt 0.000000 0.000000
vt 0.000000 0.000000
vt 0.000000 0.000000
vt 0.000000 0.000000
vn 0.8971 0.4418 0.0000
vn -0.0141 0.0729 -0.9972
vn -0.9552 -0.2958 0.0000
vn -0.0141 0.0729 0.9972
vn -0.3641 0.9314 0.0000
vn 0.3641 -0.9314 0.0000
vn -0.0138 0.1073 0.9941
vn -0.9782 -0.2079 0.0000
vn -0.0138 0.1073 -0.9941
vn 0.9018 0.4322 0.0000
vn 0.9619 0.2734 0.0000
vn 0.1401 -0.0656 -0.9880
vn -0.8625 -0.5061 0.0000
vn 0.1401 -0.0656 0.9880
vn 0.0374 -0.0956 0.9947
vn -0.8919 -0.4522 0.0000
vn 0.0374 -0.0956 -0.9947
vn 0.6134 0.7898 0.0000
vn -0.0288 0.0736 -0.9969
vn -0.0288 0.0736 0.9969
vn -0.0231 0.0960 0.9951
vn -0.0231 0.0960 -0.9951
vn 0.0836 -0.1424 -0.9863
vn 0.0836 -0.1424 0.9863
vn 0.0577 -0.0248 0.9980
vn 0.0577 -0.0248 -0.9980
usemtl Material
s off
f 90/108/128 98/109/128 97/110/128
f 98/109/129 96/111/129 99/112/129
f 96/111/130 100/113/130 99/112/130
f 94/114/131 97/110/131 100/113/131
f 95/115/132 89/116/132 91/117/132
f 92/118/133 94/114/133 96/111/133
f 103/119/134 97/110/134 104/120/134
f 99/112/135 103/119/135 102/121/135
f 98/109/136 102/121/136 101/122/136
f 97/110/137 101/122/137 104/120/137
f 104/120/138 105/123/138 108/124/138
f 101/122/139 106/125/139 105/123/139
f 102/121/140 107/126/140 106/125/140
f 107/126/141 104/120/141 108/124/141
f 93/127/142 108/124/142 89/116/142
f 106/125/143 93/127/143 95/115/143
f 105/123/144 95/115/144 91/117/144
f 108/124/145 91/117/145 89/116/145
f 90/108/128 92/118/128 98/109/128
f 98/109/146 92/118/146 96/111/146
f 96/111/130 94/114/130 100/113/130
f 94/114/147 90/108/147 97/110/147
f 95/115/132 93/127/132 89/116/132
f 92/118/133 90/108/133 94/114/133
f 103/119/148 100/113/148 97/110/148
f 99/112/135 100/113/135 103/119/135
f 98/109/149 99/112/149 102/121/149
f 97/110/137 98/109/137 101/122/137
f 104/120/138 101/122/138 105/123/138
f 101/122/150 102/121/150 106/125/150
f 102/121/140 103/119/140 107/126/140
f 107/126/151 103/119/151 104/120/151
f 93/127/152 107/126/152 108/124/152
f 106/125/143 107/126/143 93/127/143
f 105/123/153 106/125/153 95/115/153
f 108/124/145 105/123/145 91/117/145
