# Blender 3.5.0
# www.blender.org
mtllib shellfishUp.mtl
o Cube.001
v 1.784848 1.235639 1.639057
v -0.379335 0.357028 0.478734
v 1.784848 1.235639 -1.639057
v -0.379335 0.357028 -0.478734
v 0.035449 0.462534 0.389951
v 0.035449 0.462534 -0.389951
v 0.630885 0.644519 -1.083965
v 0.630885 0.644519 1.083965
v -0.379335 0.357028 0.000000
v 2.294071 1.766550 -0.000000
v 0.035449 0.462534 -0.000000
v 0.495634 0.878780 -0.000000
v 2.183537 1.702733 0.750631
v 0.035449 0.462534 0.194976
v 0.542316 0.797925 0.541983
v -0.379335 0.357028 0.239367
v -0.379335 0.357028 -0.239367
v 2.183537 1.702733 -0.750631
v 0.035449 0.462534 -0.194976
v 0.542316 0.797925 -0.541983
v 1.154849 1.031908 -1.361511
v 1.154849 1.031908 1.361511
v 1.300718 1.485709 -0.000000
v 1.293714 1.370208 0.646307
v 1.293714 1.370208 -0.646307
v 1.873683 1.081771 1.639057
v -0.129904 -0.075000 -0.478734
v -0.129904 -0.075000 0.478734
v 1.873683 1.081771 -1.639057
v 0.226870 0.130983 0.389951
v 0.226870 0.130983 -0.389951
v 0.752249 0.434311 1.083965
v 0.752249 0.434311 -1.083965
v 2.485492 1.434999 -0.000000
v -0.129904 -0.075000 0.000000
v -0.129904 -0.075000 0.239367
v 2.374958 1.371182 0.750631
v 2.374958 1.371182 -0.750631
v -0.129904 -0.075000 -0.239367
v 1.312966 0.758041 1.361511
v 1.312966 0.758041 -1.361511
vn -0.2465 0.9691 -0.0000
vn -0.8660 -0.5000 -0.0000
vn -0.3412 -0.1970 -0.9191
vn 0.1824 0.1053 0.9776
vn 0.7256 0.4189 0.5459
vn -0.6520 -0.3765 0.6581
vn 0.1824 0.1053 -0.9776
vn -0.5518 0.8340 -0.0000
vn -0.6091 0.7561 -0.2394
vn -0.3412 -0.1970 0.9191
vn -0.6520 -0.3765 -0.6581
vn -0.6119 0.7728 0.1680
vn -0.6213 0.7654 0.1677
vn 0.8538 0.4929 -0.1676
vn -0.5875 0.7484 0.3078
vn -0.6650 0.6831 0.3020
vn 0.8538 0.4929 0.1676
vn 0.7256 0.4189 -0.5459
vn -0.5965 0.7912 -0.1349
vn -0.6708 0.7416 -0.0000
vn -0.2718 0.9614 -0.0417
vn -0.4166 0.8504 0.3214
vn -0.3620 0.9183 0.1602
vn -0.3646 0.8816 -0.2999
vn 0.5000 -0.8660 -0.0000
vn -0.5875 0.7484 -0.3078
vn -0.6650 0.6831 -0.3020
vn -0.5965 0.7912 0.1349
vn -0.6091 0.7561 0.2394
vn -0.6119 0.7728 -0.1680
vn -0.6213 0.7654 -0.1677
vn -0.3620 0.9183 -0.1602
vn -0.3646 0.8816 0.2999
vn -0.2718 0.9614 0.0417
vn -0.4166 0.8504 -0.3214
vt 0.231192 0.633393
vt 0.803207 0.801450
vt 0.341630 0.853875
vt 0.569601 0.650166
vt 0.134618 0.903888
vt 0.259255 0.967006
vt 0.170048 0.977030
vt 0.231192 0.978333
vt 0.500526 0.979941
vt 0.481194 0.702299
vt 0.259255 0.864372
vt 0.428676 0.917117
vt 0.089445 0.916324
vt 0.418108 0.972908
vt 0.584027 0.693364
vt 0.473850 0.929553
vt 0.512015 0.735829
vt 0.022336 0.972080
vt 0.481194 0.830020
vt 0.037356 0.897687
vt 0.177021 0.853875
vt 0.681368 0.711977
vt 0.403088 0.898514
vt 0.348604 0.977030
vt 0.259255 0.915689
vt 0.525398 0.676233
vt 0.209199 0.791420
vt 0.689953 0.955282
vt 0.548021 0.714596
vt 0.580807 0.770195
vt 0.209199 0.715044
vt 0.752316 0.902631
vt 0.566024 0.703980
vt 0.631014 0.740961
vt 0.547500 0.663199
vt 0.259255 0.941347
vt 0.259255 0.890031
vt 0.503296 0.689266
vt 0.209199 0.873014
vt 0.613698 0.984374
vt 0.530018 0.725213
vt 0.530927 0.799983
vt 0.490674 0.904665
vt 0.184901 0.915452
vt 0.742102 0.756398
vt 0.356483 0.915452
vt 0.635050 0.862178
vt 0.691422 0.821385
vt 0.572070 0.891767
vt 0.250237 0.633393
vt 0.322585 0.853875
vt 0.689356 0.380949
vt 0.312729 0.864372
vt 0.428676 0.970591
vt 0.757841 0.051790
vt 0.312729 0.967006
vt 0.134618 0.957362
vt 0.669607 0.104216
vt 0.151003 0.977030
vt 0.250237 0.978333
vt 0.991446 0.201458
vt 0.089445 0.957362
vt 0.377070 0.972908
vt 0.700346 0.137319
vt 0.473850 0.970591
vt 0.063374 0.972080
vt 0.772216 0.094615
vt 0.377070 0.898514
vt 0.322585 0.977030
vt 0.669607 0.231224
vt 0.063374 0.897687
vt 0.151003 0.853875
vt 0.869389 0.112520
vt 0.250237 0.791420
vt 0.879083 0.356306
vt 0.312729 0.915689
vt 0.713724 0.078003
vt 0.312729 0.941347
vt 0.691666 0.091109
vt 0.250237 0.715044
vt 0.802921 0.385645
vt 0.250237 0.873014
vt 0.941267 0.303444
vt 0.312729 0.890031
vt 0.735783 0.064896
vt 0.322585 0.915452
vt 0.679482 0.306087
vt 0.151003 0.915452
vt 0.930417 0.156989
s 0
usemtl Material.011
f 6/17/1 17/38/1 19/41/1
f 17/37/2 27/53/2 39/84/2
f 41/88/3 3/7/3 29/59/3
f 5/13/4 28/57/4 30/62/4
f 37/80/5 1/1/5 26/50/5
f 8/23/6 30/63/6 32/68/6
f 27/54/7 6/16/7 31/65/7
f 20/42/8 6/17/8 19/41/8
f 21/43/9 20/42/9 25/49/9
f 40/86/10 8/24/10 32/69/10
f 31/66/11 7/20/11 33/71/11
f 24/48/12 12/30/12 15/34/12
f 12/30/13 14/33/13 15/34/13
f 18/39/14 34/74/14 38/82/14
f 16/36/2 35/76/2 36/78/2
f 14/33/1 9/26/1 16/35/1
f 5/15/1 16/35/1 2/4/1
f 2/6/2 36/78/2 28/56/2
f 15/34/15 5/15/15 8/22/15
f 22/45/16 15/34/16 8/22/16
f 10/27/17 37/80/17 34/74/17
f 3/8/18 38/82/18 29/60/18
f 25/49/19 12/30/19 23/47/19
f 12/30/20 19/41/20 11/29/20
f 9/25/2 39/84/2 35/76/2
f 19/41/1 9/26/1 11/29/1
f 18/40/21 23/47/21 10/28/21
f 1/2/22 24/48/22 22/45/22
f 13/32/23 23/47/23 24/48/23
f 1/3/10 40/86/10 26/51/10
f 3/9/24 25/49/24 18/40/24
f 7/21/3 41/88/3 33/72/3
f 35/77/25 39/85/25 31/67/25
f 6/17/1 4/10/1 17/38/1
f 17/37/2 4/11/2 27/53/2
f 41/88/3 21/44/3 3/7/3
f 5/13/4 2/5/4 28/57/4
f 37/80/5 13/31/5 1/1/5
f 8/23/6 5/14/6 30/63/6
f 27/54/7 4/12/7 6/16/7
f 20/42/26 7/19/26 6/17/26
f 21/43/27 7/19/27 20/42/27
f 40/86/10 22/46/10 8/24/10
f 31/66/11 6/18/11 7/20/11
f 24/48/28 23/47/28 12/30/28
f 12/30/20 11/29/20 14/33/20
f 18/39/14 10/27/14 34/74/14
f 16/36/2 9/25/2 35/76/2
f 14/33/1 11/29/1 9/26/1
f 5/15/1 14/33/1 16/35/1
f 2/6/2 16/36/2 36/78/2
f 15/34/8 14/33/8 5/15/8
f 22/45/29 24/48/29 15/34/29
f 10/27/17 13/31/17 37/80/17
f 3/8/18 18/39/18 38/82/18
f 25/49/30 20/42/30 12/30/30
f 12/30/31 20/42/31 19/41/31
f 9/25/2 17/37/2 39/84/2
f 19/41/1 17/38/1 9/26/1
f 18/40/32 25/49/32 23/47/32
f 1/2/33 13/32/33 24/48/33
f 13/32/34 10/28/34 23/47/34
f 1/3/10 22/46/10 40/86/10
f 3/9/35 21/43/35 25/49/35
f 7/21/3 21/44/3 41/88/3
f 31/67/25 33/73/25 32/70/25
f 33/73/25 41/89/25 34/75/25
f 32/70/25 34/75/25 40/87/25
f 41/89/25 29/61/25 38/83/25
f 38/83/25 34/75/25 41/89/25
f 34/75/25 37/81/25 40/87/25
f 37/81/25 26/52/25 40/87/25
f 32/70/25 30/64/25 31/67/25
f 30/64/25 28/58/25 36/79/25
f 30/64/25 36/79/25 35/77/25
f 33/73/25 34/75/25 32/70/25
f 39/85/25 27/55/25 31/67/25
f 30/64/25 35/77/25 31/67/25
