# Blender 3.5.0
# www.blender.org
mtllib rockBlock2.mtl
o Cube
v -3.500000 2.282539 2.033717
v -8.127991 -3.500000 4.043162
v -3.500000 2.282539 -2.033717
v -8.127991 -3.500000 -4.043161
v 4.213370 1.493230 3.500000
v 6.826407 -3.500000 4.891737
v 4.213370 1.493229 -3.500000
v 6.826407 -3.500000 -4.891736
v 0.000000 -3.500000 6.523997
v 0.000000 2.958336 -2.027435
v 0.000000 -3.500000 -6.523996
v 0.000000 2.958337 2.027434
v -6.012734 -0.598360 2.664403
v 4.772954 -0.995789 -3.500000
v -6.012734 -0.598360 -2.664403
v 4.772954 -0.995788 3.500000
v 0.000000 0.815850 4.186703
v 0.000000 0.815850 -4.186703
v -7.487844 -1.750000 3.500000
v -7.487844 -1.750000 -3.500000
v 6.254227 -1.963230 3.500000
v 0.000000 -0.920867 4.361998
v 0.000000 -0.920868 -4.361998
v 6.254227 -1.963231 -3.500000
v 4.141840 0.585025 -3.500000
v -5.223235 1.300786 2.726409
v -5.223235 1.300785 -2.726409
v 4.141840 0.585025 3.500000
v 0.000000 1.750000 3.500000
v 0.000000 1.750000 -3.500000
v 1.750000 -3.500000 6.103605
v 1.750000 3.964803 -2.060118
v 1.750000 -3.500000 -6.103604
v 1.750000 3.964804 2.060117
v 1.750000 0.000000 4.118611
v 1.750000 -0.000000 -4.118611
v 1.750000 -1.750000 -4.600764
v 1.750000 -1.750000 4.600764
v 1.750000 1.750000 3.500000
v 1.750000 1.750000 -3.500000
v -1.750000 -3.500000 -6.103604
v -1.750000 2.226011 2.374613
v -1.750000 -3.500000 6.103605
v -1.750000 2.226010 -2.374614
v -1.750000 -0.000000 -4.118611
v -1.750000 0.000000 4.118611
v -1.750000 -1.750000 4.600764
v -1.750000 -1.750000 -4.600764
v -1.750000 1.750000 -3.500000
v -1.750000 1.750000 3.500000
v 6.826407 -3.500000 0.000000
v -3.500000 3.523835 -0.000000
v 4.935829 1.493230 -0.000000
v -9.067982 -3.500000 0.000000
v 0.000000 -3.500000 0.000000
v 0.000000 4.199636 -0.000000
v -7.063693 -0.598360 0.000000
v 5.744130 -0.995789 0.000000
v 6.676817 -1.963230 0.000000
v -8.649641 -1.750000 0.000000
v -6.038665 1.300785 -0.000000
v 5.571006 0.585025 -0.000000
v 1.750000 -3.500000 0.000000
v 1.750000 5.206100 -0.000000
v -1.750000 3.467307 -0.000000
v -1.750000 -3.500000 0.000000
vn 0.7065 0.6062 -0.3653
vn -0.0000 -0.0000 -1.0000
vn 0.7771 0.5435 0.3173
vn -0.0000 -1.0000 -0.0000
vn -0.4492 0.8833 -0.1344
vn -0.2279 0.7958 0.5610
vn -0.0000 0.7731 0.6343
vn -0.0000 0.9210 -0.3896
vn -0.2687 0.8536 -0.4462
vn 0.0057 0.2656 -0.9641
vn -0.0057 0.2656 0.9641
vn -0.1363 0.6902 0.7106
vn -0.5767 0.7942 -0.1914
vn 0.7172 0.6914 0.0866
vn 0.2374 0.3634 -0.9009
vn 0.1782 0.6411 -0.7465
vn 0.9372 0.3489 -0.0000
vn -0.8959 0.3924 -0.2083
vn -0.2847 0.3776 0.8811
vn 0.1793 0.6409 0.7464
vn -0.1793 0.6409 -0.7464
vn -0.1886 0.3273 -0.9259
vn 0.1886 0.3273 0.9259
vn -0.3346 0.1085 0.9361
vn -0.8313 0.4487 -0.3279
vn 0.9583 0.1049 0.2659
vn 0.2284 0.0912 -0.9693
vn 0.1886 0.3273 -0.9259
vn 0.2284 0.0912 0.9693
vn 0.1782 0.6411 0.7465
vn 0.1793 0.6409 -0.7464
vn -0.0057 0.2656 -0.9641
vn 0.2374 0.3634 0.9009
vn -0.0000 -0.0000 1.0000
vn -0.0000 0.7731 -0.6343
vn -0.4474 0.7627 -0.4670
vn -0.1886 0.3273 0.9259
vn -0.3346 0.1085 -0.9361
vn -0.2847 0.3776 -0.8811
vn -0.1793 0.6409 0.7464
vn 0.0057 0.2656 0.9641
vn -0.1363 0.6902 -0.7106
vn 0.0276 0.8532 -0.5208
vn -0.2279 0.7958 -0.5610
vn -0.0000 0.9210 0.3896
vn 0.0276 0.8532 0.5208
vn -0.4474 0.7627 0.4670
vn 0.9583 0.1049 -0.2659
vn -0.8313 0.4487 0.3279
vn -0.8959 0.3924 0.2083
vn 0.7172 0.6914 -0.0866
vn -0.5767 0.7942 0.1914
vn -0.2687 0.8536 0.4462
vn -0.4492 0.8833 0.1344
vn 0.7771 0.5435 -0.3173
vn 0.7065 0.6062 0.3653
vn 0.6608 0.7381 -0.1364
vn 0.0567 0.5442 -0.8370
vn 0.9765 -0.0769 0.2016
vn -0.5987 0.6837 -0.4173
vn -0.0461 0.9200 0.3891
vn -0.3126 0.5177 0.7964
vn -0.1939 0.7584 -0.6223
vn -0.3361 0.8032 -0.4918
vn -0.0852 0.1001 -0.9913
vn 0.0852 0.1001 0.9913
vn -0.3438 0.2494 0.9053
vn -0.5262 0.8246 -0.2076
vn 0.5406 0.8278 0.1500
vn 0.2739 0.2555 -0.9272
vn 0.2011 0.6976 -0.6877
vn 0.9882 0.0962 0.1193
vn -0.9256 0.2213 -0.3072
vn -0.1440 0.6447 0.7507
vn 0.1959 0.6300 0.7515
vn -0.1959 0.6300 -0.7515
vn -0.0000 0.5923 -0.8057
vn -0.0000 0.5923 0.8057
vn -0.2454 0.3231 0.9140
vn -0.8929 0.3625 -0.2671
vn 0.8684 0.3467 0.3546
vn 0.1602 0.3290 -0.9306
vn 0.1602 0.3290 0.9306
vn 0.2011 0.6976 0.6877
vn 0.1959 0.6300 -0.7515
vn 0.0852 0.1001 -0.9913
vn 0.2739 0.2555 0.9272
vn 0.0567 0.5442 0.8370
vn -0.3126 0.5177 -0.7964
vn -0.4419 0.7684 -0.4630
vn -0.2454 0.3231 -0.9140
vn -0.1440 0.6447 -0.7507
vn -0.1959 0.6300 0.7515
vn -0.0852 0.1001 0.9913
vn -0.3438 0.2494 -0.9053
vn -0.0615 0.8845 -0.4624
vn -0.0461 0.9200 -0.3891
vn -0.1939 0.7584 0.6223
vn -0.0615 0.8845 0.4624
vn -0.4419 0.7684 0.4630
vn 0.8684 0.3467 -0.3546
vn -0.8929 0.3625 0.2671
vn -0.9256 0.2213 0.3072
vn 0.9882 0.0962 -0.1193
vn 0.5406 0.8278 -0.1500
vn -0.5262 0.8246 0.2076
vn -0.3361 0.8032 0.4918
vn -0.5987 0.6837 0.4173
vn 0.9765 -0.0769 -0.2016
vn 0.6608 0.7381 0.1364
vt 0.496358 0.652186
vt 0.619809 0.478736
vt 0.750537 0.706226
vt 0.088237 0.043674
vt 0.943550 0.516995
vt 0.512853 0.295685
vt 0.983512 0.726647
vt 0.675572 0.445760
vt 0.322106 0.043674
vt 0.583632 0.860963
vt 0.259872 0.634115
vt 0.299254 0.795439
vt 0.717561 0.896207
vt 0.063695 0.476177
vt 0.572233 0.077631
vt 0.057555 0.634115
vt 0.016488 0.795439
vt 0.727165 0.016488
vt 0.346648 0.476177
vt 0.717561 0.704203
vt 0.016488 0.278747
vt 0.504753 0.193288
vt 0.393855 0.278747
vt 0.727165 0.215282
vt 0.502614 0.755022
vt 0.799061 0.609301
vt 0.548584 0.560247
vt 0.639302 0.067563
vt 0.057870 0.707386
vt 0.952590 0.622759
vt 0.589024 0.375892
vt 0.260187 0.707386
vt 0.631140 0.858254
vt 0.588670 0.737688
vt 0.586321 0.201523
vt 0.770889 0.653946
vt 0.579867 0.509922
vt 0.972566 0.671623
vt 0.624965 0.422323
vt 0.259059 0.748020
vt 0.656282 0.892532
vt 0.623629 0.724758
vt 0.634073 0.205984
vt 0.668894 0.027272
vt 0.056742 0.748020
vt 0.595937 0.081894
vt 0.057943 0.658199
vt 0.520132 0.596278
vt 0.802469 0.549891
vt 0.959570 0.563661
vt 0.541965 0.348645
vt 0.260260 0.658199
vt 0.599511 0.852267
vt 0.556777 0.745065
vt 0.553727 0.198290
vt 0.717518 0.753426
vt 0.028646 0.329360
vt 0.100746 0.543010
vt 0.483524 0.140517
vt 0.727143 0.164317
vt 0.381697 0.329360
vt 0.494566 0.811344
vt 0.219831 0.543010
vt 0.611014 0.780645
vt 0.611878 0.153033
vt 0.663559 0.157957
vt 0.652990 0.767398
vt 0.566022 0.793989
vt 0.558606 0.147916
vt 0.717383 0.265065
vt 0.381697 0.228135
vt 0.514147 0.700451
vt 0.699028 0.655578
vt 0.028646 0.228135
vt 0.523196 0.245927
vt 0.602119 0.253781
vt 0.592524 0.682797
vt 0.634500 0.669550
vt 0.653800 0.258705
vt 0.548847 0.248664
vt 0.547532 0.696141
vt 0.205171 0.476177
vt 0.157871 0.795439
vt 0.456468 0.289813
vt 0.887860 0.478736
vt 0.429206 0.662785
vt 0.157999 0.641064
vt 0.866130 0.726647
vt 0.205171 0.016488
vt 0.205171 0.278747
vt 0.448440 0.187425
vt 0.435601 0.765616
vt 0.874825 0.627446
vt 0.484164 0.532761
vt 0.158068 0.716727
vt 0.157483 0.752085
vt 0.496399 0.479931
vt 0.870621 0.675404
vt 0.880243 0.565633
vt 0.455586 0.575420
vt 0.157688 0.671944
vt 0.205171 0.329360
vt 0.159855 0.509153
vt 0.426831 0.134609
vt 0.426831 0.821962
vt 0.462835 0.239576
vt 0.439463 0.711292
vt 0.205171 0.228135
s 0
usemtl Material.001
f 53/87/1 32/58/1 64/103/1
f 40/69/2 7/15/2 25/46/2
f 53/87/3 28/52/3 62/101/3
f 66/108/4 4/9/4 41/71/4
f 61/99/5 3/5/5 27/50/5
f 50/81/6 1/1/6 26/48/6
f 39/68/7 12/25/7 29/54/7
f 55/90/4 33/61/4 63/102/4
f 44/75/8 30/55/8 49/80/8
f 65/106/9 10/22/9 44/75/9
f 45/76/10 23/43/10 48/79/10
f 35/64/11 22/42/11 38/67/11
f 47/78/12 13/27/12 19/37/12
f 57/93/13 20/38/13 60/98/13
f 58/95/14 21/40/14 59/96/14
f 37/66/15 14/28/15 24/44/15
f 37/66/16 8/18/16 33/60/16
f 51/83/17 21/40/17 6/12/17
f 54/88/18 20/38/18 4/7/18
f 43/73/19 19/37/19 2/2/19
f 38/67/20 9/20/20 31/56/20
f 48/79/21 11/24/21 41/70/21
f 49/80/22 18/35/22 45/76/22
f 39/68/23 17/34/23 35/64/23
f 46/77/24 26/48/24 13/27/24
f 61/99/25 15/30/25 57/93/25
f 62/101/26 16/32/26 58/95/26
f 36/65/27 25/46/27 14/28/27
f 18/35/28 40/69/28 36/65/28
f 28/53/29 35/64/29 16/33/29
f 6/13/30 38/67/30 31/56/30
f 11/24/31 37/66/31 33/60/31
f 23/43/32 36/65/32 37/66/32
f 16/33/33 38/67/33 21/41/33
f 63/102/4 8/19/4 51/82/4
f 5/10/34 39/68/34 28/53/34
f 10/22/35 40/69/35 30/55/35
f 56/91/36 32/59/36 10/22/36
f 17/34/37 50/81/37 46/77/37
f 27/51/38 45/76/38 15/31/38
f 20/39/39 41/70/39 4/8/39
f 9/20/40 47/78/40 43/73/40
f 22/42/41 46/77/41 47/78/41
f 15/31/42 48/79/42 20/39/42
f 65/106/43 3/6/43 52/84/43
f 3/6/44 49/80/44 27/51/44
f 29/54/45 42/72/45 50/81/45
f 55/90/4 41/71/4 11/23/4
f 43/74/4 55/90/4 9/21/4
f 1/1/46 65/107/46 52/86/46
f 34/62/47 56/92/47 12/25/47
f 6/14/4 63/102/4 51/82/4
f 14/29/48 62/101/48 58/95/48
f 13/26/49 61/99/49 57/93/49
f 19/36/50 54/88/50 2/3/50
f 24/45/17 51/83/17 8/17/17
f 24/45/51 58/95/51 59/96/51
f 19/37/52 57/94/52 60/97/52
f 12/25/53 65/107/53 42/72/53
f 31/57/4 55/90/4 63/102/4
f 1/1/54 61/100/54 26/48/54
f 2/4/4 66/108/4 43/74/4
f 25/47/55 53/87/55 62/101/55
f 34/63/56 53/87/56 64/103/56
f 53/87/57 7/16/57 32/58/57
f 40/69/58 32/59/58 7/15/58
f 53/87/59 5/11/59 28/52/59
f 66/108/4 54/89/4 4/9/4
f 61/99/60 52/85/60 3/5/60
f 50/81/61 42/72/61 1/1/61
f 39/68/62 34/62/62 12/25/62
f 55/90/4 11/23/4 33/61/4
f 44/75/63 10/22/63 30/55/63
f 65/106/64 56/91/64 10/22/64
f 45/76/65 18/35/65 23/43/65
f 35/64/66 17/34/66 22/42/66
f 47/78/67 46/77/67 13/27/67
f 57/93/68 15/30/68 20/38/68
f 58/95/69 16/32/69 21/40/69
f 37/66/70 36/65/70 14/28/70
f 37/66/71 24/44/71 8/18/71
f 51/83/72 59/96/72 21/40/72
f 54/88/73 60/98/73 20/38/73
f 43/73/74 47/78/74 19/37/74
f 38/67/75 22/42/75 9/20/75
f 48/79/76 23/43/76 11/24/76
f 49/80/77 30/55/77 18/35/77
f 39/68/78 29/54/78 17/34/78
f 46/77/79 50/81/79 26/48/79
f 61/99/80 27/50/80 15/30/80
f 62/101/81 28/52/81 16/32/81
f 36/65/82 40/69/82 25/46/82
f 18/35/77 30/55/77 40/69/77
f 28/53/83 39/68/83 35/64/83
f 6/13/84 21/41/84 38/67/84
f 11/24/85 23/43/85 37/66/85
f 23/43/86 18/35/86 36/65/86
f 16/33/87 35/64/87 38/67/87
f 63/102/4 33/61/4 8/19/4
f 5/10/88 34/62/88 39/68/88
f 10/22/89 32/59/89 40/69/89
f 56/91/90 64/104/90 32/59/90
f 17/34/78 29/54/78 50/81/78
f 27/51/91 49/80/91 45/76/91
f 20/39/92 48/79/92 41/70/92
f 9/20/93 22/42/93 47/78/93
f 22/42/94 17/34/94 46/77/94
f 15/31/95 45/76/95 48/79/95
f 65/106/96 44/75/96 3/6/96
f 3/6/97 44/75/97 49/80/97
f 29/54/98 12/25/98 42/72/98
f 55/90/4 66/108/4 41/71/4
f 43/74/4 66/108/4 55/90/4
f 1/1/99 42/72/99 65/107/99
f 34/62/100 64/105/100 56/92/100
f 6/14/4 31/57/4 63/102/4
f 14/29/101 25/47/101 62/101/101
f 13/26/102 26/49/102 61/99/102
f 19/36/103 60/98/103 54/88/103
f 24/45/104 59/96/104 51/83/104
f 24/45/105 14/29/105 58/95/105
f 19/37/106 13/27/106 57/94/106
f 12/25/107 56/92/107 65/107/107
f 31/57/4 9/21/4 55/90/4
f 1/1/108 52/86/108 61/100/108
f 2/4/4 54/89/4 66/108/4
f 25/47/109 7/16/109 53/87/109
f 34/63/110 5/11/110 53/87/110
